<?xml version="1.0" encoding="UTF-8" standalone="no"?><svg xmlns="http://www.w3.org/2000/svg" xmlns:xlink="http://www.w3.org/1999/xlink" contentStyleType="text/css" height="338px" preserveAspectRatio="none" style="width:741px;height:338px;background:#FFFFFF;" version="1.1" viewBox="0 0 741 338" width="741px" zoomAndPan="magnify"><defs/><g><!--MD5=[4c3c6ca31b650077fcb9916b7ab93452]
cluster DesignPatterns.Behavioral.Command--><g id="cluster_DesignPatterns.Behavioral.Command"><path d="M8.5,6 L300.5,6 A3.75,3.75 0 0 1 303,8.5 L310,28.2969 L731.5,28.2969 A2.5,2.5 0 0 1 734,30.7969 L734,328.5 A2.5,2.5 0 0 1 731.5,331 L8.5,331 A2.5,2.5 0 0 1 6,328.5 L6,8.5 A2.5,2.5 0 0 1 8.5,6 " fill="none" style="stroke:#000000;stroke-width:1.5;"/><line style="stroke:#000000;stroke-width:1.5;" x1="6" x2="310" y1="28.2969" y2="28.2969"/><text fill="#000000" font-family="sans-serif" font-size="14" font-weight="bold" lengthAdjust="spacing" textLength="291" x="10" y="20.9951">DesignPatterns.Behavioral.Command</text></g><!--MD5=[86c7d10291a96cd5baaec4732ff8c7a8]
class DesignPatterns.Behavioral.Command.Command--><g id="elem_DesignPatterns.Behavioral.Command.Command"><rect codeLine="3" fill="#F1F1F1" height="64.2969" id="DesignPatterns.Behavioral.Command.Command" rx="2.5" ry="2.5" style="stroke:#181818;stroke-width:0.5;" width="129" x="588.5" y="242.5"/><ellipse cx="615.2" cy="258.5" fill="#B4A7E5" rx="11" ry="11" style="stroke:#181818;stroke-width:1.0;"/><path d="M611.1219,254.2656 L611.1219,252.1094 L618.5125,252.1094 L618.5125,254.2656 L616.0438,254.2656 L616.0438,262.3438 L618.5125,262.3438 L618.5125,264.5 L611.1219,264.5 L611.1219,262.3438 L613.5906,262.3438 L613.5906,254.2656 L611.1219,254.2656 Z " fill="#000000"/><text fill="#000000" font-family="sans-serif" font-size="14" font-style="italic" lengthAdjust="spacing" textLength="71" x="631.8" y="263.3467">Command</text><line style="stroke:#181818;stroke-width:0.5;" x1="589.5" x2="716.5" y1="274.5" y2="274.5"/><line style="stroke:#181818;stroke-width:0.5;" x1="589.5" x2="716.5" y1="282.5" y2="282.5"/><ellipse cx="599.5" cy="296.1484" fill="#84BE84" rx="3" ry="3" style="stroke:#038048;stroke-width:1.0;"/><text fill="#000000" font-family="sans-serif" font-size="14" lengthAdjust="spacing" textLength="103" x="608.5" y="299.4951">execute(): void</text></g><!--MD5=[34abf09b1abae51dbef10f7d2acb1d95]
class DesignPatterns.Behavioral.Command.Light--><g id="elem_DesignPatterns.Behavioral.Command.Light"><rect codeLine="7" fill="#F1F1F1" height="80.5938" id="DesignPatterns.Behavioral.Command.Light" rx="2.5" ry="2.5" style="stroke:#181818;stroke-width:0.5;" width="121" x="432.5" y="234"/><ellipse cx="472.7" cy="250" fill="#ADD1B2" rx="11" ry="11" style="stroke:#181818;stroke-width:1.0;"/><path d="M475.6688,255.6406 Q475.0906,255.9375 474.45,256.0781 Q473.8094,256.2344 473.1063,256.2344 Q470.6063,256.2344 469.2781,254.5938 Q467.9656,252.9375 467.9656,249.8125 Q467.9656,246.6875 469.2781,245.0313 Q470.6063,243.375 473.1063,243.375 Q473.8094,243.375 474.45,243.5313 Q475.1063,243.6875 475.6688,243.9844 L475.6688,246.7031 Q475.0438,246.125 474.45,245.8594 Q473.8563,245.5781 473.2313,245.5781 Q471.8875,245.5781 471.2,246.6563 Q470.5125,247.7188 470.5125,249.8125 Q470.5125,251.9063 471.2,252.9844 Q471.8875,254.0469 473.2313,254.0469 Q473.8563,254.0469 474.45,253.7813 Q475.0438,253.5 475.6688,252.9219 L475.6688,255.6406 Z " fill="#000000"/><text fill="#000000" font-family="sans-serif" font-size="14" lengthAdjust="spacing" textLength="33" x="492.3" y="254.8467">Light</text><line style="stroke:#181818;stroke-width:0.5;" x1="433.5" x2="552.5" y1="266" y2="266"/><line style="stroke:#181818;stroke-width:0.5;" x1="433.5" x2="552.5" y1="274" y2="274"/><ellipse cx="443.5" cy="287.6484" fill="#84BE84" rx="3" ry="3" style="stroke:#038048;stroke-width:1.0;"/><text fill="#000000" font-family="sans-serif" font-size="14" lengthAdjust="spacing" textLength="95" x="452.5" y="290.9951">turnOn(): void</text><ellipse cx="443.5" cy="303.9453" fill="#84BE84" rx="3" ry="3" style="stroke:#038048;stroke-width:1.0;"/><text fill="#000000" font-family="sans-serif" font-size="14" lengthAdjust="spacing" textLength="94" x="452.5" y="307.292">turnOff(): void</text></g><!--MD5=[18591acbe4449d8dafcd6f8b3095eaab]
class DesignPatterns.Behavioral.Command.LightOnCommand--><g id="elem_DesignPatterns.Behavioral.Command.LightOnCommand"><rect codeLine="12" fill="#F1F1F1" height="80.5938" id="DesignPatterns.Behavioral.Command.LightOnCommand" rx="2.5" ry="2.5" style="stroke:#181818;stroke-width:0.5;" width="156" x="213" y="234"/><ellipse cx="228" cy="250" fill="#ADD1B2" rx="11" ry="11" style="stroke:#181818;stroke-width:1.0;"/><path d="M230.9688,255.6406 Q230.3906,255.9375 229.75,256.0781 Q229.1094,256.2344 228.4063,256.2344 Q225.9063,256.2344 224.5781,254.5938 Q223.2656,252.9375 223.2656,249.8125 Q223.2656,246.6875 224.5781,245.0313 Q225.9063,243.375 228.4063,243.375 Q229.1094,243.375 229.75,243.5313 Q230.4063,243.6875 230.9688,243.9844 L230.9688,246.7031 Q230.3438,246.125 229.75,245.8594 Q229.1563,245.5781 228.5313,245.5781 Q227.1875,245.5781 226.5,246.6563 Q225.8125,247.7188 225.8125,249.8125 Q225.8125,251.9063 226.5,252.9844 Q227.1875,254.0469 228.5313,254.0469 Q229.1563,254.0469 229.75,253.7813 Q230.3438,253.5 230.9688,252.9219 L230.9688,255.6406 Z " fill="#000000"/><text fill="#000000" font-family="sans-serif" font-size="14" lengthAdjust="spacing" textLength="124" x="242" y="254.8467">LightOnCommand</text><line style="stroke:#181818;stroke-width:0.5;" x1="214" x2="368" y1="266" y2="266"/><rect fill="none" height="6" style="stroke:#C82930;stroke-width:1.0;" width="6" x="221" y="276.6484"/><text fill="#000000" font-family="sans-serif" font-size="14" lengthAdjust="spacing" textLength="71" x="233" y="282.9951">light: Light</text><line style="stroke:#181818;stroke-width:0.5;" x1="214" x2="368" y1="290.2969" y2="290.2969"/><ellipse cx="224" cy="303.9453" fill="#84BE84" rx="3" ry="3" style="stroke:#038048;stroke-width:1.0;"/><text fill="#000000" font-family="sans-serif" font-size="14" lengthAdjust="spacing" textLength="103" x="233" y="307.292">execute(): void</text></g><!--MD5=[c5efdf4261764b37ff4c76f6fa8f5b05]
class DesignPatterns.Behavioral.Command.LightOffCommand--><g id="elem_DesignPatterns.Behavioral.Command.LightOffCommand"><rect codeLine="17" fill="#F1F1F1" height="80.5938" id="DesignPatterns.Behavioral.Command.LightOffCommand" rx="2.5" ry="2.5" style="stroke:#181818;stroke-width:0.5;" width="155" x="22.5" y="234"/><ellipse cx="37.5" cy="250" fill="#ADD1B2" rx="11" ry="11" style="stroke:#181818;stroke-width:1.0;"/><path d="M40.4688,255.6406 Q39.8906,255.9375 39.25,256.0781 Q38.6094,256.2344 37.9063,256.2344 Q35.4063,256.2344 34.0781,254.5938 Q32.7656,252.9375 32.7656,249.8125 Q32.7656,246.6875 34.0781,245.0313 Q35.4063,243.375 37.9063,243.375 Q38.6094,243.375 39.25,243.5313 Q39.9063,243.6875 40.4688,243.9844 L40.4688,246.7031 Q39.8438,246.125 39.25,245.8594 Q38.6563,245.5781 38.0313,245.5781 Q36.6875,245.5781 36,246.6563 Q35.3125,247.7188 35.3125,249.8125 Q35.3125,251.9063 36,252.9844 Q36.6875,254.0469 38.0313,254.0469 Q38.6563,254.0469 39.25,253.7813 Q39.8438,253.5 40.4688,252.9219 L40.4688,255.6406 Z " fill="#000000"/><text fill="#000000" font-family="sans-serif" font-size="14" lengthAdjust="spacing" textLength="123" x="51.5" y="254.8467">LightOffCommand</text><line style="stroke:#181818;stroke-width:0.5;" x1="23.5" x2="176.5" y1="266" y2="266"/><rect fill="none" height="6" style="stroke:#C82930;stroke-width:1.0;" width="6" x="30.5" y="276.6484"/><text fill="#000000" font-family="sans-serif" font-size="14" lengthAdjust="spacing" textLength="71" x="42.5" y="282.9951">light: Light</text><line style="stroke:#181818;stroke-width:0.5;" x1="23.5" x2="176.5" y1="290.2969" y2="290.2969"/><ellipse cx="33.5" cy="303.9453" fill="#84BE84" rx="3" ry="3" style="stroke:#038048;stroke-width:1.0;"/><text fill="#000000" font-family="sans-serif" font-size="14" lengthAdjust="spacing" textLength="103" x="42.5" y="307.292">execute(): void</text></g><!--MD5=[0f08c9c70f22f630ca64c4c304e7818b]
class DesignPatterns.Behavioral.Command.RemoteControl--><g id="elem_DesignPatterns.Behavioral.Command.RemoteControl"><rect codeLine="22" fill="#F1F1F1" height="96.8906" id="DesignPatterns.Behavioral.Command.RemoteControl" rx="2.5" ry="2.5" style="stroke:#181818;stroke-width:0.5;" width="315" x="402.5" y="60"/><ellipse cx="503.25" cy="76" fill="#ADD1B2" rx="11" ry="11" style="stroke:#181818;stroke-width:1.0;"/><path d="M506.2188,81.6406 Q505.6406,81.9375 505,82.0781 Q504.3594,82.2344 503.6563,82.2344 Q501.1563,82.2344 499.8281,80.5938 Q498.5156,78.9375 498.5156,75.8125 Q498.5156,72.6875 499.8281,71.0313 Q501.1563,69.375 503.6563,69.375 Q504.3594,69.375 505,69.5313 Q505.6563,69.6875 506.2188,69.9844 L506.2188,72.7031 Q505.5938,72.125 505,71.8594 Q504.4063,71.5781 503.7813,71.5781 Q502.4375,71.5781 501.75,72.6563 Q501.0625,73.7188 501.0625,75.8125 Q501.0625,77.9063 501.75,78.9844 Q502.4375,80.0469 503.7813,80.0469 Q504.4063,80.0469 505,79.7813 Q505.5938,79.5 506.2188,78.9219 L506.2188,81.6406 Z " fill="#000000"/><text fill="#000000" font-family="sans-serif" font-size="14" lengthAdjust="spacing" textLength="105" x="523.75" y="80.8467">RemoteControl</text><line style="stroke:#181818;stroke-width:0.5;" x1="403.5" x2="716.5" y1="92" y2="92"/><rect fill="none" height="6" style="stroke:#C82930;stroke-width:1.0;" width="6" x="410.5" y="102.6484"/><text fill="#000000" font-family="sans-serif" font-size="14" lengthAdjust="spacing" textLength="149" x="422.5" y="108.9951">command: Command</text><line style="stroke:#181818;stroke-width:0.5;" x1="403.5" x2="716.5" y1="116.2969" y2="116.2969"/><ellipse cx="413.5" cy="129.9453" fill="#84BE84" rx="3" ry="3" style="stroke:#038048;stroke-width:1.0;"/><text fill="#000000" font-family="sans-serif" font-size="14" lengthAdjust="spacing" textLength="289" x="422.5" y="133.292">setCommand(command: Command): void</text><ellipse cx="413.5" cy="146.2422" fill="#84BE84" rx="3" ry="3" style="stroke:#038048;stroke-width:1.0;"/><text fill="#000000" font-family="sans-serif" font-size="14" lengthAdjust="spacing" textLength="133" x="422.5" y="149.5889">pressButton(): void</text></g><!--MD5=[1429a2ed87178c57fd8a110b64c4485e]
link DesignPatterns.Behavioral.Command.LightOnCommand to DesignPatterns.Behavioral.Command.Command--><g id="link_DesignPatterns.Behavioral.Command.LightOnCommand_DesignPatterns.Behavioral.Command.Command"><path codeLine="30" d="M346.41,233.97 C370.27,218.92 399.26,203.65 428,196 C461.5,187.08 472.37,187.58 506,196 C540.37,204.6 575.49,222.93 602.78,239.72 " fill="none" id="DesignPatterns.Behavioral.Command.LightOnCommand-to-DesignPatterns.Behavioral.Command.Command" style="stroke:#181818;stroke-width:1.0;"/><polygon fill="#181818" points="607.09,242.4,601.5534,234.2547,602.842,239.7628,597.3339,241.0515,607.09,242.4" style="stroke:#181818;stroke-width:1.0;"/><text fill="#000000" font-family="sans-serif" font-size="13" lengthAdjust="spacing" textLength="76" x="429" y="200.0669">implements</text></g><!--MD5=[7e26b6395f21aff6b25460e64fd44a8c]
link DesignPatterns.Behavioral.Command.LightOffCommand to DesignPatterns.Behavioral.Command.Command--><g id="link_DesignPatterns.Behavioral.Command.LightOffCommand_DesignPatterns.Behavioral.Command.Command"><path codeLine="31" d="M168.65,233.89 C197.91,218.83 233.08,203.58 267,196 C356.34,176.05 564.19,231.8 571,234 C576.67,235.83 582.43,238 588.14,240.36 " fill="none" id="DesignPatterns.Behavioral.Command.LightOffCommand-to-DesignPatterns.Behavioral.Command.Command" style="stroke:#181818;stroke-width:1.0;"/><polygon fill="#181818" points="592.93,242.38,586.2144,235.1758,588.3291,240.4225,583.0824,242.5372,592.93,242.38" style="stroke:#181818;stroke-width:1.0;"/><text fill="#000000" font-family="sans-serif" font-size="13" lengthAdjust="spacing" textLength="76" x="268" y="200.0669">implements</text></g><!--MD5=[25bea4be4882f65ae59bdf4254ff98d4]
link DesignPatterns.Behavioral.Command.LightOnCommand to DesignPatterns.Behavioral.Command.Light--><g id="link_DesignPatterns.Behavioral.Command.LightOnCommand_DesignPatterns.Behavioral.Command.Light"><path codeLine="32" d="M381.1,274.5 C381.1,274.5 407.12,274.5 419.09,274.5 " fill="none" id="DesignPatterns.Behavioral.Command.LightOnCommand-DesignPatterns.Behavioral.Command.Light" style="stroke:#181818;stroke-width:1.0;"/><polygon fill="#181818" points="432.34,274.5,423.34,270.5,427.34,274.5,423.34,278.5,432.34,274.5" style="stroke:#181818;stroke-width:1.0;"/><line style="stroke:#181818;stroke-width:1.0;" x1="427.34" x2="419.34" y1="274.5" y2="274.5"/><polygon fill="none" points="369.1,274.5,375.1,278.5,381.1,274.5,375.1,270.5,369.1,274.5" style="stroke:#181818;stroke-width:1.0;"/><text fill="#000000" font-family="sans-serif" font-size="13" lengthAdjust="spacing" textLength="27" x="387.25" y="267.5669">light</text></g><!--MD5=[013eea235e7e022923f0b5a70e1905f0]
link DesignPatterns.Behavioral.Command.LightOffCommand to DesignPatterns.Behavioral.Command.Light--><g id="link_DesignPatterns.Behavioral.Command.LightOffCommand_DesignPatterns.Behavioral.Command.Light"><path codeLine="33" d="M146.0034,226.0607 C146.0034,226.0607 177.94,202.29 195.5,196 C236.44,181.33 345.66,217.08 419.73,245.05 " fill="none" id="DesignPatterns.Behavioral.Command.LightOffCommand-DesignPatterns.Behavioral.Command.Light" style="stroke:#181818;stroke-width:1.0;"/><polygon fill="#181818" points="432.22,249.81,425.2322,242.8695,427.5472,248.0309,422.3857,250.3459,432.22,249.81" style="stroke:#181818;stroke-width:1.0;"/><line style="stroke:#181818;stroke-width:1.0;" x1="427.5472" x2="420.07" y1="248.0309" y2="245.175"/><polygon fill="none" points="136.97,233.96,144.1198,233.0215,146.0034,226.0607,138.8536,226.9992,136.97,233.96" style="stroke:#181818;stroke-width:1.0;"/><text fill="#000000" font-family="sans-serif" font-size="13" lengthAdjust="spacing" textLength="27" x="196.5" y="200.0669">light</text></g><!--MD5=[f4ee7b1a372892ecf05150985d4daf45]
link DesignPatterns.Behavioral.Command.RemoteControl to DesignPatterns.Behavioral.Command.Command--><g id="link_DesignPatterns.Behavioral.Command.RemoteControl_DesignPatterns.Behavioral.Command.Command"><path codeLine="34" d="M593.0681,167.8191 C593.0681,167.8191 618.11,211.98 628.83,230.87 " fill="none" id="DesignPatterns.Behavioral.Command.RemoteControl-DesignPatterns.Behavioral.Command.Command" style="stroke:#181818;stroke-width:1.0;"/><polygon fill="#181818" points="635.36,242.4,634.4011,232.5979,632.8941,238.0504,627.4417,236.5434,635.36,242.4" style="stroke:#181818;stroke-width:1.0;"/><line style="stroke:#181818;stroke-width:1.0;" x1="632.8941" x2="628.95" y1="238.0504" y2="231.095"/><polygon fill="none" points="587.15,157.38,586.6294,164.5723,593.0681,167.8191,593.5888,160.6269,587.15,157.38" style="stroke:#181818;stroke-width:1.0;"/><text fill="#000000" font-family="sans-serif" font-size="13" lengthAdjust="spacing" textLength="65" x="613" y="200.0669">command</text></g><!--MD5=[251855a4ec20e8812e4f4995bc6b186a]
@startuml
namespace DesignPatterns.Behavioral.Command {

    interface Command {
        +execute(): void
    }

    class Light {
        +turnOn(): void
        +turnOff(): void
    }

    class LightOnCommand {
        -light: Light
        +execute(): void
    }

    class LightOffCommand {
        -light: Light
        +execute(): void
    }

    class RemoteControl {
        -command: Command
        +setCommand(command: Command): void
        +pressButton(): void
    }

}

DesignPatterns.Behavioral.Command.LightOnCommand -right-> DesignPatterns.Behavioral.Command.Command: implements
DesignPatterns.Behavioral.Command.LightOffCommand -right-> DesignPatterns.Behavioral.Command.Command: implements
DesignPatterns.Behavioral.Command.LightOnCommand o-right-> DesignPatterns.Behavioral.Command.Light: light
DesignPatterns.Behavioral.Command.LightOffCommand o-right-> DesignPatterns.Behavioral.Command.Light: light
DesignPatterns.Behavioral.Command.RemoteControl o-down-> DesignPatterns.Behavioral.Command.Command: command
@enduml

PlantUML version 1.2022.7(Mon Aug 22 17:01:30 UTC 2022)
(GPL source distribution)
Java Runtime: OpenJDK Runtime Environment
JVM: OpenJDK 64-Bit Server VM
Default Encoding: UTF-8
Language: en
Country: null
--></g></svg>