<?xml version="1.0" encoding="UTF-8" standalone="no"?><svg xmlns="http://www.w3.org/2000/svg" xmlns:xlink="http://www.w3.org/1999/xlink" contentStyleType="text/css" height="229px" preserveAspectRatio="none" style="width:726px;height:229px;background:#FFFFFF;" version="1.1" viewBox="0 0 726 229" width="726px" zoomAndPan="magnify"><defs/><g><!--MD5=[47ef66f92d75230a4175b4b957b3edb4]
cluster DesignPatterns.Structural.Proxy--><g id="cluster_DesignPatterns.Structural.Proxy"><path d="M8.5,39.5659 L263.5,39.5659 A3.75,3.75 0 0 1 266,42.0659 L273,61.8628 L716.5,61.8628 A2.5,2.5 0 0 1 719,64.3628 L719,220.0659 A2.5,2.5 0 0 1 716.5,222.5659 L8.5,222.5659 A2.5,2.5 0 0 1 6,220.0659 L6,42.0659 A2.5,2.5 0 0 1 8.5,39.5659 " fill="none" style="stroke:#000000;stroke-width:1.5;"/><line style="stroke:#000000;stroke-width:1.5;" x1="6" x2="273" y1="61.8628" y2="61.8628"/><text fill="#000000" font-family="sans-serif" font-size="14" font-weight="bold" lengthAdjust="spacing" textLength="254" x="10" y="54.561">DesignPatterns.Structural.Proxy</text></g><!--MD5=[a2fea41f6e8f251be50a4f86be76c5a8]
class DesignPatterns.Structural.Proxy.Subject--><g id="elem_DesignPatterns.Structural.Proxy.Subject"><rect codeLine="3" fill="#F1F1F1" height="64.2969" id="DesignPatterns.Structural.Proxy.Subject" rx="2.5" ry="2.5" style="stroke:#181818;stroke-width:0.5;" width="127" x="575.5" y="118.0659"/><ellipse cx="609.85" cy="134.0659" fill="#B4A7E5" rx="11" ry="11" style="stroke:#181818;stroke-width:1.0;"/><path d="M605.7719,129.8315 L605.7719,127.6753 L613.1625,127.6753 L613.1625,129.8315 L610.6938,129.8315 L610.6938,137.9097 L613.1625,137.9097 L613.1625,140.0659 L605.7719,140.0659 L605.7719,137.9097 L608.2406,137.9097 L608.2406,129.8315 L605.7719,129.8315 Z " fill="#000000"/><text fill="#000000" font-family="sans-serif" font-size="14" font-style="italic" lengthAdjust="spacing" textLength="52" x="628.15" y="138.9126">Subject</text><line style="stroke:#181818;stroke-width:0.5;" x1="576.5" x2="701.5" y1="150.0659" y2="150.0659"/><line style="stroke:#181818;stroke-width:0.5;" x1="576.5" x2="701.5" y1="158.0659" y2="158.0659"/><ellipse cx="586.5" cy="171.7144" fill="#84BE84" rx="3" ry="3" style="stroke:#038048;stroke-width:1.0;"/><text fill="#000000" font-family="sans-serif" font-size="14" lengthAdjust="spacing" textLength="101" x="595.5" y="175.061">request(): void</text></g><!--MD5=[17fced251e126cbcec0115fef6dc7b4b]
class DesignPatterns.Structural.Proxy.RealSubject--><g id="elem_DesignPatterns.Structural.Proxy.RealSubject"><rect codeLine="7" fill="#F1F1F1" height="64.2969" id="DesignPatterns.Structural.Proxy.RealSubject" rx="2.5" ry="2.5" style="stroke:#181818;stroke-width:0.5;" width="127" x="335.5" y="118.0659"/><ellipse cx="356.35" cy="134.0659" fill="#ADD1B2" rx="11" ry="11" style="stroke:#181818;stroke-width:1.0;"/><path d="M359.3188,139.7065 Q358.7406,140.0034 358.1,140.144 Q357.4594,140.3003 356.7563,140.3003 Q354.2563,140.3003 352.9281,138.6597 Q351.6156,137.0034 351.6156,133.8784 Q351.6156,130.7534 352.9281,129.0972 Q354.2563,127.4409 356.7563,127.4409 Q357.4594,127.4409 358.1,127.5972 Q358.7563,127.7534 359.3188,128.0503 L359.3188,130.769 Q358.6938,130.1909 358.1,129.9253 Q357.5063,129.644 356.8813,129.644 Q355.5375,129.644 354.85,130.7222 Q354.1625,131.7847 354.1625,133.8784 Q354.1625,135.9722 354.85,137.0503 Q355.5375,138.1128 356.8813,138.1128 Q357.5063,138.1128 358.1,137.8472 Q358.6938,137.5659 359.3188,136.9878 L359.3188,139.7065 Z " fill="#000000"/><text fill="#000000" font-family="sans-serif" font-size="14" lengthAdjust="spacing" textLength="82" x="371.65" y="138.9126">RealSubject</text><line style="stroke:#181818;stroke-width:0.5;" x1="336.5" x2="461.5" y1="150.0659" y2="150.0659"/><line style="stroke:#181818;stroke-width:0.5;" x1="336.5" x2="461.5" y1="158.0659" y2="158.0659"/><ellipse cx="346.5" cy="171.7144" fill="#84BE84" rx="3" ry="3" style="stroke:#038048;stroke-width:1.0;"/><text fill="#000000" font-family="sans-serif" font-size="14" lengthAdjust="spacing" textLength="101" x="355.5" y="175.061">request(): void</text></g><!--MD5=[9524739cfba739b2bca9973ae8be0de1]
class DesignPatterns.Structural.Proxy.Proxy--><g id="elem_DesignPatterns.Structural.Proxy.Proxy"><rect codeLine="11" fill="#F1F1F1" height="113.1875" id="DesignPatterns.Structural.Proxy.Proxy" rx="2.5" ry="2.5" style="stroke:#181818;stroke-width:0.5;" width="200" x="22" y="93.5659"/><ellipse cx="99.25" cy="109.5659" fill="#ADD1B2" rx="11" ry="11" style="stroke:#181818;stroke-width:1.0;"/><path d="M102.2188,115.2065 Q101.6406,115.5034 101,115.644 Q100.3594,115.8003 99.6563,115.8003 Q97.1563,115.8003 95.8281,114.1597 Q94.5156,112.5034 94.5156,109.3784 Q94.5156,106.2534 95.8281,104.5972 Q97.1563,102.9409 99.6563,102.9409 Q100.3594,102.9409 101,103.0972 Q101.6563,103.2534 102.2188,103.5503 L102.2188,106.269 Q101.5938,105.6909 101,105.4253 Q100.4063,105.144 99.7813,105.144 Q98.4375,105.144 97.75,106.2222 Q97.0625,107.2847 97.0625,109.3784 Q97.0625,111.4722 97.75,112.5503 Q98.4375,113.6128 99.7813,113.6128 Q100.4063,113.6128 101,113.3472 Q101.5938,113.0659 102.2188,112.4878 L102.2188,115.2065 Z " fill="#000000"/><text fill="#000000" font-family="sans-serif" font-size="14" lengthAdjust="spacing" textLength="37" x="119.75" y="114.4126">Proxy</text><line style="stroke:#181818;stroke-width:0.5;" x1="23" x2="221" y1="125.5659" y2="125.5659"/><rect fill="none" height="6" style="stroke:#C82930;stroke-width:1.0;" width="6" x="30" y="136.2144"/><text fill="#000000" font-family="sans-serif" font-size="14" lengthAdjust="spacing" textLength="174" x="42" y="142.561">real_subject: RealSubject</text><line style="stroke:#181818;stroke-width:0.5;" x1="23" x2="221" y1="149.8628" y2="149.8628"/><ellipse cx="33" cy="163.5112" fill="#84BE84" rx="3" ry="3" style="stroke:#038048;stroke-width:1.0;"/><text fill="#000000" font-family="sans-serif" font-size="14" lengthAdjust="spacing" textLength="101" x="42" y="166.8579">request(): void</text><rect fill="#F24D5C" height="6" style="stroke:#C82930;stroke-width:1.0;" width="6" x="30" y="176.8081"/><text fill="#000000" font-family="sans-serif" font-size="14" lengthAdjust="spacing" textLength="147" x="42" y="183.1548">check_access(): bool</text><rect fill="#F24D5C" height="6" style="stroke:#C82930;stroke-width:1.0;" width="6" x="30" y="193.105"/><text fill="#000000" font-family="sans-serif" font-size="14" lengthAdjust="spacing" textLength="124" x="42" y="199.4517">log_access(): void</text></g><!--MD5=[e6421df2da2ca5620974a260006c6ec5]
link DesignPatterns.Structural.Proxy.Proxy to DesignPatterns.Structural.Proxy.Subject--><g id="link_DesignPatterns.Structural.Proxy.Proxy_DesignPatterns.Structural.Proxy.Subject"><path codeLine="20" d="M196.38,93.5059 C231.32,70.3959 274.75,46.3659 318,34.5659 C387.46,15.6259 411.52,12.3159 480,34.5659 C528.13,50.2059 573.87,86.4959 603.83,114.2659 " fill="none" id="DesignPatterns.Structural.Proxy.Proxy-to-DesignPatterns.Structural.Proxy.Subject" style="stroke:#181818;stroke-width:1.0;"/><polygon fill="#181818" points="607.77,117.9459,603.9387,108.8728,604.1219,114.5267,598.468,114.7098,607.77,117.9459" style="stroke:#181818;stroke-width:1.0;"/><text fill="#000000" font-family="sans-serif" font-size="13" lengthAdjust="spacing" textLength="76" x="361" y="19.6328">implements</text></g><!--MD5=[b49cfe453b9cc2fc1f3bd2a1d45c1157]
link DesignPatterns.Structural.Proxy.RealSubject to DesignPatterns.Structural.Proxy.Subject--><g id="link_DesignPatterns.Structural.Proxy.RealSubject_DesignPatterns.Structural.Proxy.Subject"><path codeLine="21" d="M462.69,150.0659 C495.77,150.0659 536.24,150.0659 570.06,150.0659 " fill="none" id="DesignPatterns.Structural.Proxy.RealSubject-to-DesignPatterns.Structural.Proxy.Subject" style="stroke:#181818;stroke-width:1.0;"/><polygon fill="#181818" points="575.43,150.0659,566.43,146.0659,570.43,150.0659,566.43,154.0659,575.43,150.0659" style="stroke:#181818;stroke-width:1.0;"/><text fill="#000000" font-family="sans-serif" font-size="13" lengthAdjust="spacing" textLength="76" x="481" y="143.1328">implements</text></g><!--MD5=[b9030712b49154f144d285c5ab91f161]
link DesignPatterns.Structural.Proxy.Proxy to DesignPatterns.Structural.Proxy.RealSubject--><g id="link_DesignPatterns.Structural.Proxy.Proxy_DesignPatterns.Structural.Proxy.RealSubject"><path codeLine="22" d="M234,150.0659 C234,150.0659 295.31,150.0659 322.13,150.0659 " fill="none" id="DesignPatterns.Structural.Proxy.Proxy-DesignPatterns.Structural.Proxy.RealSubject" style="stroke:#181818;stroke-width:1.0;"/><polygon fill="#181818" points="335.36,150.0659,326.36,146.0659,330.36,150.0659,326.36,154.0659,335.36,150.0659" style="stroke:#181818;stroke-width:1.0;"/><line style="stroke:#181818;stroke-width:1.0;" x1="330.36" x2="322.36" y1="150.0659" y2="150.0659"/><polygon fill="none" points="222,150.0659,228,154.0659,234,150.0659,228,146.0659,222,150.0659" style="stroke:#181818;stroke-width:1.0;"/><text fill="#000000" font-family="sans-serif" font-size="13" lengthAdjust="spacing" textLength="77" x="240.25" y="143.1328">real_subject</text></g><!--MD5=[b793ca064e0d75cfdd8c7d0ab3e5eb80]
@startuml
namespace DesignPatterns.Structural.Proxy {

    interface Subject {
        +request(): void
    }

    class RealSubject {
        +request(): void
    }

    class Proxy {
        -real_subject: RealSubject
        +request(): void
        -check_access(): bool
        -log_access(): void
    }

}

DesignPatterns.Structural.Proxy.Proxy -right-> DesignPatterns.Structural.Proxy.Subject: implements
DesignPatterns.Structural.Proxy.RealSubject -right-> DesignPatterns.Structural.Proxy.Subject: implements
DesignPatterns.Structural.Proxy.Proxy o-right-> DesignPatterns.Structural.Proxy.RealSubject: real_subject
@enduml

PlantUML version 1.2022.7(Mon Aug 22 17:01:30 UTC 2022)
(GPL source distribution)
Java Runtime: OpenJDK Runtime Environment
JVM: OpenJDK 64-Bit Server VM
Default Encoding: UTF-8
Language: en
Country: null
--></g></svg>