<?xml version="1.0" encoding="UTF-8" standalone="no"?><svg xmlns="http://www.w3.org/2000/svg" xmlns:xlink="http://www.w3.org/1999/xlink" contentStyleType="text/css" height="197px" preserveAspectRatio="none" style="width:632px;height:197px;background:#FFFFFF;" version="1.1" viewBox="0 0 632 197" width="632px" zoomAndPan="magnify"><defs/><g><!--MD5=[d753c409d698dbe2eb3ba608c24e7428]
cluster DesignPatterns.Creational.AbstractFactory--><g id="cluster_DesignPatterns.Creational.AbstractFactory"><path d="M8.5,39.5659 L346.5,39.5659 A3.75,3.75 0 0 1 349,42.0659 L356,61.8628 L622.5,61.8628 A2.5,2.5 0 0 1 625,64.3628 L625,188.0659 A2.5,2.5 0 0 1 622.5,190.5659 L8.5,190.5659 A2.5,2.5 0 0 1 6,188.0659 L6,42.0659 A2.5,2.5 0 0 1 8.5,39.5659 " fill="none" style="stroke:#000000;stroke-width:1.5;"/><line style="stroke:#000000;stroke-width:1.5;" x1="6" x2="356" y1="61.8628" y2="61.8628"/><text fill="#000000" font-family="sans-serif" font-size="14" font-weight="bold" lengthAdjust="spacing" textLength="337" x="10" y="54.561">DesignPatterns.Creational.AbstractFactory</text></g><!--MD5=[c73b3d47c96193b5dc39b3b976254834]
class DesignPatterns.Creational.AbstractFactory.Target--><g id="elem_DesignPatterns.Creational.AbstractFactory.Target"><rect codeLine="3" fill="#F1F1F1" height="64.2969" id="DesignPatterns.Creational.AbstractFactory.Target" rx="2.5" ry="2.5" style="stroke:#181818;stroke-width:0.5;" width="127" x="481.5" y="102.0659"/><ellipse cx="519" cy="118.0659" fill="#B4A7E5" rx="11" ry="11" style="stroke:#181818;stroke-width:1.0;"/><path d="M514.9219,113.8315 L514.9219,111.6753 L522.3125,111.6753 L522.3125,113.8315 L519.8438,113.8315 L519.8438,121.9097 L522.3125,121.9097 L522.3125,124.0659 L514.9219,124.0659 L514.9219,121.9097 L517.3906,121.9097 L517.3906,113.8315 L514.9219,113.8315 Z " fill="#000000"/><text fill="#000000" font-family="sans-serif" font-size="14" font-style="italic" lengthAdjust="spacing" textLength="45" x="538" y="122.9126">Target</text><line style="stroke:#181818;stroke-width:0.5;" x1="482.5" x2="607.5" y1="134.0659" y2="134.0659"/><line style="stroke:#181818;stroke-width:0.5;" x1="482.5" x2="607.5" y1="142.0659" y2="142.0659"/><ellipse cx="492.5" cy="155.7144" fill="#84BE84" rx="3" ry="3" style="stroke:#038048;stroke-width:1.0;"/><text fill="#000000" font-family="sans-serif" font-size="14" lengthAdjust="spacing" textLength="101" x="501.5" y="159.061">request(): void</text></g><!--MD5=[935d1c33c63c7acca85624d14f9efa9d]
class DesignPatterns.Creational.AbstractFactory.Adaptee--><g id="elem_DesignPatterns.Creational.AbstractFactory.Adaptee"><rect codeLine="7" fill="#F1F1F1" height="64.2969" id="DesignPatterns.Creational.AbstractFactory.Adaptee" rx="2.5" ry="2.5" style="stroke:#181818;stroke-width:0.5;" width="184" x="262" y="102.0659"/><ellipse cx="320.75" cy="118.0659" fill="#ADD1B2" rx="11" ry="11" style="stroke:#181818;stroke-width:1.0;"/><path d="M323.7188,123.7065 Q323.1406,124.0034 322.5,124.144 Q321.8594,124.3003 321.1563,124.3003 Q318.6563,124.3003 317.3281,122.6597 Q316.0156,121.0034 316.0156,117.8784 Q316.0156,114.7534 317.3281,113.0972 Q318.6563,111.4409 321.1563,111.4409 Q321.8594,111.4409 322.5,111.5972 Q323.1563,111.7534 323.7188,112.0503 L323.7188,114.769 Q323.0938,114.1909 322.5,113.9253 Q321.9063,113.644 321.2813,113.644 Q319.9375,113.644 319.25,114.7222 Q318.5625,115.7847 318.5625,117.8784 Q318.5625,119.9722 319.25,121.0503 Q319.9375,122.1128 321.2813,122.1128 Q321.9063,122.1128 322.5,121.8472 Q323.0938,121.5659 323.7188,120.9878 L323.7188,123.7065 Z " fill="#000000"/><text fill="#000000" font-family="sans-serif" font-size="14" lengthAdjust="spacing" textLength="58" x="341.25" y="122.9126">Adaptee</text><line style="stroke:#181818;stroke-width:0.5;" x1="263" x2="445" y1="134.0659" y2="134.0659"/><line style="stroke:#181818;stroke-width:0.5;" x1="263" x2="445" y1="142.0659" y2="142.0659"/><ellipse cx="273" cy="155.7144" fill="#84BE84" rx="3" ry="3" style="stroke:#038048;stroke-width:1.0;"/><text fill="#000000" font-family="sans-serif" font-size="14" lengthAdjust="spacing" textLength="158" x="282" y="159.061">specificRequest(): void</text></g><!--MD5=[80f9f45faca9d67e8ac85dec3fe554be]
class DesignPatterns.Creational.AbstractFactory.Adapter--><g id="elem_DesignPatterns.Creational.AbstractFactory.Adapter"><rect codeLine="11" fill="#F1F1F1" height="80.5938" id="DesignPatterns.Creational.AbstractFactory.Adapter" rx="2.5" ry="2.5" style="stroke:#181818;stroke-width:0.5;" width="150" x="22" y="93.5659"/><ellipse cx="65.8" cy="109.5659" fill="#ADD1B2" rx="11" ry="11" style="stroke:#181818;stroke-width:1.0;"/><path d="M68.7688,115.2065 Q68.1906,115.5034 67.55,115.644 Q66.9094,115.8003 66.2063,115.8003 Q63.7063,115.8003 62.3781,114.1597 Q61.0656,112.5034 61.0656,109.3784 Q61.0656,106.2534 62.3781,104.5972 Q63.7063,102.9409 66.2063,102.9409 Q66.9094,102.9409 67.55,103.0972 Q68.2063,103.2534 68.7688,103.5503 L68.7688,106.269 Q68.1438,105.6909 67.55,105.4253 Q66.9563,105.144 66.3313,105.144 Q64.9875,105.144 64.3,106.2222 Q63.6125,107.2847 63.6125,109.3784 Q63.6125,111.4722 64.3,112.5503 Q64.9875,113.6128 66.3313,113.6128 Q66.9563,113.6128 67.55,113.3472 Q68.1438,113.0659 68.7688,112.4878 L68.7688,115.2065 Z " fill="#000000"/><text fill="#000000" font-family="sans-serif" font-size="14" lengthAdjust="spacing" textLength="54" x="86.2" y="114.4126">Adapter</text><line style="stroke:#181818;stroke-width:0.5;" x1="23" x2="171" y1="125.5659" y2="125.5659"/><rect fill="none" height="6" style="stroke:#C82930;stroke-width:1.0;" width="6" x="30" y="136.2144"/><text fill="#000000" font-family="sans-serif" font-size="14" lengthAdjust="spacing" textLength="124" x="42" y="142.561">adaptee: Adaptee</text><line style="stroke:#181818;stroke-width:0.5;" x1="23" x2="171" y1="149.8628" y2="149.8628"/><ellipse cx="33" cy="163.5112" fill="#84BE84" rx="3" ry="3" style="stroke:#038048;stroke-width:1.0;"/><text fill="#000000" font-family="sans-serif" font-size="14" lengthAdjust="spacing" textLength="101" x="42" y="166.8579">request(): void</text></g><!--MD5=[75b321048292186fd270347a7a08ba69]
link DesignPatterns.Creational.AbstractFactory.Adapter to DesignPatterns.Creational.AbstractFactory.Target--><g id="link_DesignPatterns.Creational.AbstractFactory.Adapter_DesignPatterns.Creational.AbstractFactory.Target"><path codeLine="18" d="M140.83,93.4859 C168.46,70.7459 206.16,44.6059 245,32.5659 C291.48,18.1559 420.15,11.4559 464,32.5659 C491.8,45.9459 513.03,74.0359 526.77,97.2759 " fill="none" id="DesignPatterns.Creational.AbstractFactory.Adapter-to-DesignPatterns.Creational.AbstractFactory.Target" style="stroke:#181818;stroke-width:1.0;"/><polygon fill="#181818" points="529.41,101.8559,528.3726,92.0619,526.9093,97.5262,521.445,96.0629,529.41,101.8559" style="stroke:#181818;stroke-width:1.0;"/><text fill="#000000" font-family="sans-serif" font-size="13" lengthAdjust="spacing" textLength="76" x="288" y="19.6328">implements</text></g><!--MD5=[bfe72ab170e124bff08e7b985452061f]
link DesignPatterns.Creational.AbstractFactory.Adapter to DesignPatterns.Creational.AbstractFactory.Adaptee--><g id="link_DesignPatterns.Creational.AbstractFactory.Adapter_DesignPatterns.Creational.AbstractFactory.Adaptee"><path codeLine="19" d="M184.03,134.0659 C184.03,134.0659 227.25,134.0659 248.25,134.0659 " fill="none" id="DesignPatterns.Creational.AbstractFactory.Adapter-DesignPatterns.Creational.AbstractFactory.Adaptee" style="stroke:#181818;stroke-width:1.0;"/><polygon fill="#181818" points="261.54,134.0659,252.54,130.0659,256.54,134.0659,252.54,138.0659,261.54,134.0659" style="stroke:#181818;stroke-width:1.0;"/><line style="stroke:#181818;stroke-width:1.0;" x1="256.54" x2="248.54" y1="134.0659" y2="134.0659"/><polygon fill="none" points="172.03,134.0659,178.03,138.0659,184.03,134.0659,178.03,130.0659,172.03,134.0659" style="stroke:#181818;stroke-width:1.0;"/><text fill="#000000" font-family="sans-serif" font-size="13" lengthAdjust="spacing" textLength="53" x="190.5" y="127.1328">adaptee</text></g><!--MD5=[63edcb525e38ba2dd99630eb55a98cbe]
@startuml
namespace DesignPatterns.Creational.AbstractFactory {

    interface Target {
        +request(): void
    }

    class Adaptee {
        +specificRequest(): void
    }

    class Adapter {
        -adaptee: Adaptee
        +request(): void
    }

}

DesignPatterns.Creational.AbstractFactory.Adapter -right-> DesignPatterns.Creational.AbstractFactory.Target: implements
DesignPatterns.Creational.AbstractFactory.Adapter o-right-> DesignPatterns.Creational.AbstractFactory.Adaptee: adaptee
@enduml

PlantUML version 1.2022.7(Mon Aug 22 17:01:30 UTC 2022)
(GPL source distribution)
Java Runtime: OpenJDK Runtime Environment
JVM: OpenJDK 64-Bit Server VM
Default Encoding: UTF-8
Language: en
Country: null
--></g></svg>