<?xml version="1.0" encoding="UTF-8" standalone="no"?><svg xmlns="http://www.w3.org/2000/svg" xmlns:xlink="http://www.w3.org/1999/xlink" contentStyleType="text/css" height="410px" preserveAspectRatio="none" style="width:593px;height:410px;background:#FFFFFF;" version="1.1" viewBox="0 0 593 410" width="593px" zoomAndPan="magnify"><defs/><g><!--MD5=[abc1b86c55a5b92865450e0c63f2fd2c]
cluster DesignPatterns.Creational.FactoryMethod--><g id="cluster_DesignPatterns.Creational.FactoryMethod"><path d="M8.5,6 L338.5,6 A3.75,3.75 0 0 1 341,8.5 L348,28.2969 L583.5,28.2969 A2.5,2.5 0 0 1 586,30.7969 L586,400.5 A2.5,2.5 0 0 1 583.5,403 L8.5,403 A2.5,2.5 0 0 1 6,400.5 L6,8.5 A2.5,2.5 0 0 1 8.5,6 " fill="none" style="stroke:#000000;stroke-width:1.5;"/><line style="stroke:#000000;stroke-width:1.5;" x1="6" x2="348" y1="28.2969" y2="28.2969"/><text fill="#000000" font-family="sans-serif" font-size="14" font-weight="bold" lengthAdjust="spacing" textLength="329" x="10" y="20.9951">DesignPatterns.Creational.FactoryMethod</text></g><!--MD5=[98df502b7e4b70f10735ace41ce11d21]
class DesignPatterns.Creational.FactoryMethod.Animal--><g id="elem_DesignPatterns.Creational.FactoryMethod.Animal"><rect codeLine="3" fill="#F1F1F1" height="64.2969" id="DesignPatterns.Creational.FactoryMethod.Animal" rx="2.5" ry="2.5" style="stroke:#181818;stroke-width:0.5;" width="119" x="236.5" y="182"/><ellipse cx="270.4" cy="198" fill="#B4A7E5" rx="11" ry="11" style="stroke:#181818;stroke-width:1.0;"/><path d="M266.3219,193.7656 L266.3219,191.6094 L273.7125,191.6094 L273.7125,193.7656 L271.2438,193.7656 L271.2438,201.8438 L273.7125,201.8438 L273.7125,204 L266.3219,204 L266.3219,201.8438 L268.7906,201.8438 L268.7906,193.7656 L266.3219,193.7656 Z " fill="#000000"/><text fill="#000000" font-family="sans-serif" font-size="14" font-style="italic" lengthAdjust="spacing" textLength="45" x="288.6" y="202.8467">Animal</text><line style="stroke:#181818;stroke-width:0.5;" x1="237.5" x2="354.5" y1="214" y2="214"/><line style="stroke:#181818;stroke-width:0.5;" x1="237.5" x2="354.5" y1="222" y2="222"/><ellipse cx="247.5" cy="235.6484" fill="#84BE84" rx="3" ry="3" style="stroke:#038048;stroke-width:1.0;"/><text fill="#000000" font-family="sans-serif" font-size="14" lengthAdjust="spacing" textLength="93" x="256.5" y="238.9951">makeSound()</text></g><!--MD5=[1fd8972b2501b7258be16dfaecd1d870]
class DesignPatterns.Creational.FactoryMethod.AnimalFactory--><g id="elem_DesignPatterns.Creational.FactoryMethod.AnimalFactory"><rect codeLine="7" fill="#F1F1F1" height="64.2969" id="DesignPatterns.Creational.FactoryMethod.AnimalFactory" rx="2.5" ry="2.5" style="stroke:#181818;stroke-width:0.5;" width="179" x="78.5" y="41"/><ellipse cx="116.9" cy="57" fill="#A9DCDF" rx="11" ry="11" style="stroke:#181818;stroke-width:1.0;"/><path d="M117.0094,52.3438 L115.8531,57.4219 L118.1813,57.4219 L117.0094,52.3438 Z M115.525,50.1094 L118.5094,50.1094 L121.8688,62.5 L119.4156,62.5 L118.65,59.4375 L115.3688,59.4375 L114.6188,62.5 L112.1813,62.5 L115.525,50.1094 Z " fill="#000000"/><text fill="#000000" font-family="sans-serif" font-size="14" font-style="italic" lengthAdjust="spacing" textLength="95" x="136.1" y="61.8467">AnimalFactory</text><line style="stroke:#181818;stroke-width:0.5;" x1="79.5" x2="256.5" y1="73" y2="73"/><line style="stroke:#181818;stroke-width:0.5;" x1="79.5" x2="256.5" y1="81" y2="81"/><ellipse cx="89.5" cy="94.6484" fill="#84BE84" rx="3" ry="3" style="stroke:#038048;stroke-width:1.0;"/><text fill="#000000" font-family="sans-serif" font-size="14" lengthAdjust="spacing" textLength="153" x="98.5" y="97.9951">createAnimal(): Animal</text></g><!--MD5=[f83d30c80389f5b565b7c92b3b4d6205]
class DesignPatterns.Creational.FactoryMethod.Cat--><g id="elem_DesignPatterns.Creational.FactoryMethod.Cat"><rect codeLine="11" fill="#F1F1F1" height="64.2969" id="DesignPatterns.Creational.FactoryMethod.Cat" rx="2.5" ry="2.5" style="stroke:#181818;stroke-width:0.5;" width="119" x="131.5" y="323"/><ellipse cx="175.3" cy="339" fill="#ADD1B2" rx="11" ry="11" style="stroke:#181818;stroke-width:1.0;"/><path d="M178.2688,344.6406 Q177.6906,344.9375 177.05,345.0781 Q176.4094,345.2344 175.7063,345.2344 Q173.2063,345.2344 171.8781,343.5938 Q170.5656,341.9375 170.5656,338.8125 Q170.5656,335.6875 171.8781,334.0313 Q173.2063,332.375 175.7063,332.375 Q176.4094,332.375 177.05,332.5313 Q177.7063,332.6875 178.2688,332.9844 L178.2688,335.7031 Q177.6438,335.125 177.05,334.8594 Q176.4563,334.5781 175.8313,334.5781 Q174.4875,334.5781 173.8,335.6563 Q173.1125,336.7188 173.1125,338.8125 Q173.1125,340.9063 173.8,341.9844 Q174.4875,343.0469 175.8313,343.0469 Q176.4563,343.0469 177.05,342.7813 Q177.6438,342.5 178.2688,341.9219 L178.2688,344.6406 Z " fill="#000000"/><text fill="#000000" font-family="sans-serif" font-size="14" lengthAdjust="spacing" textLength="23" x="195.7" y="343.8467">Cat</text><line style="stroke:#181818;stroke-width:0.5;" x1="132.5" x2="249.5" y1="355" y2="355"/><line style="stroke:#181818;stroke-width:0.5;" x1="132.5" x2="249.5" y1="363" y2="363"/><ellipse cx="142.5" cy="376.6484" fill="#84BE84" rx="3" ry="3" style="stroke:#038048;stroke-width:1.0;"/><text fill="#000000" font-family="sans-serif" font-size="14" lengthAdjust="spacing" textLength="93" x="151.5" y="379.9951">makeSound()</text></g><!--MD5=[78d7583855bbe52609091864dbace1c5]
class DesignPatterns.Creational.FactoryMethod.Dog--><g id="elem_DesignPatterns.Creational.FactoryMethod.Dog"><rect codeLine="15" fill="#F1F1F1" height="64.2969" id="DesignPatterns.Creational.FactoryMethod.Dog" rx="2.5" ry="2.5" style="stroke:#181818;stroke-width:0.5;" width="119" x="328.5" y="323"/><ellipse cx="369.6" cy="339" fill="#ADD1B2" rx="11" ry="11" style="stroke:#181818;stroke-width:1.0;"/><path d="M372.5688,344.6406 Q371.9906,344.9375 371.35,345.0781 Q370.7094,345.2344 370.0063,345.2344 Q367.5063,345.2344 366.1781,343.5938 Q364.8656,341.9375 364.8656,338.8125 Q364.8656,335.6875 366.1781,334.0313 Q367.5063,332.375 370.0063,332.375 Q370.7094,332.375 371.35,332.5313 Q372.0063,332.6875 372.5688,332.9844 L372.5688,335.7031 Q371.9438,335.125 371.35,334.8594 Q370.7563,334.5781 370.1313,334.5781 Q368.7875,334.5781 368.1,335.6563 Q367.4125,336.7188 367.4125,338.8125 Q367.4125,340.9063 368.1,341.9844 Q368.7875,343.0469 370.1313,343.0469 Q370.7563,343.0469 371.35,342.7813 Q371.9438,342.5 372.5688,341.9219 L372.5688,344.6406 Z " fill="#000000"/><text fill="#000000" font-family="sans-serif" font-size="14" lengthAdjust="spacing" textLength="29" x="389.4" y="343.8467">Dog</text><line style="stroke:#181818;stroke-width:0.5;" x1="329.5" x2="446.5" y1="355" y2="355"/><line style="stroke:#181818;stroke-width:0.5;" x1="329.5" x2="446.5" y1="363" y2="363"/><ellipse cx="339.5" cy="376.6484" fill="#84BE84" rx="3" ry="3" style="stroke:#038048;stroke-width:1.0;"/><text fill="#000000" font-family="sans-serif" font-size="14" lengthAdjust="spacing" textLength="93" x="348.5" y="379.9951">makeSound()</text></g><!--MD5=[ccace120293a13bf6340a8432bd82e9b]
class DesignPatterns.Creational.FactoryMethod.CatFactory--><g id="elem_DesignPatterns.Creational.FactoryMethod.CatFactory"><rect codeLine="19" fill="#F1F1F1" height="64.2969" id="DesignPatterns.Creational.FactoryMethod.CatFactory" rx="2.5" ry="2.5" style="stroke:#181818;stroke-width:0.5;" width="179" x="22.5" y="182"/><ellipse cx="71.25" cy="198" fill="#ADD1B2" rx="11" ry="11" style="stroke:#181818;stroke-width:1.0;"/><path d="M74.2188,203.6406 Q73.6406,203.9375 73,204.0781 Q72.3594,204.2344 71.6563,204.2344 Q69.1563,204.2344 67.8281,202.5938 Q66.5156,200.9375 66.5156,197.8125 Q66.5156,194.6875 67.8281,193.0313 Q69.1563,191.375 71.6563,191.375 Q72.3594,191.375 73,191.5313 Q73.6563,191.6875 74.2188,191.9844 L74.2188,194.7031 Q73.5938,194.125 73,193.8594 Q72.4063,193.5781 71.7813,193.5781 Q70.4375,193.5781 69.75,194.6563 Q69.0625,195.7188 69.0625,197.8125 Q69.0625,199.9063 69.75,200.9844 Q70.4375,202.0469 71.7813,202.0469 Q72.4063,202.0469 73,201.7813 Q73.5938,201.5 74.2188,200.9219 L74.2188,203.6406 Z " fill="#000000"/><text fill="#000000" font-family="sans-serif" font-size="14" lengthAdjust="spacing" textLength="73" x="91.75" y="202.8467">CatFactory</text><line style="stroke:#181818;stroke-width:0.5;" x1="23.5" x2="200.5" y1="214" y2="214"/><line style="stroke:#181818;stroke-width:0.5;" x1="23.5" x2="200.5" y1="222" y2="222"/><ellipse cx="33.5" cy="235.6484" fill="#84BE84" rx="3" ry="3" style="stroke:#038048;stroke-width:1.0;"/><text fill="#000000" font-family="sans-serif" font-size="14" lengthAdjust="spacing" textLength="153" x="42.5" y="238.9951">createAnimal(): Animal</text></g><!--MD5=[74bcc567be973ea0c242102dbc86aa06]
class DesignPatterns.Creational.FactoryMethod.DogFactory--><g id="elem_DesignPatterns.Creational.FactoryMethod.DogFactory"><rect codeLine="23" fill="#F1F1F1" height="64.2969" id="DesignPatterns.Creational.FactoryMethod.DogFactory" rx="2.5" ry="2.5" style="stroke:#181818;stroke-width:0.5;" width="179" x="390.5" y="182"/><ellipse cx="436.25" cy="198" fill="#ADD1B2" rx="11" ry="11" style="stroke:#181818;stroke-width:1.0;"/><path d="M439.2188,203.6406 Q438.6406,203.9375 438,204.0781 Q437.3594,204.2344 436.6563,204.2344 Q434.1563,204.2344 432.8281,202.5938 Q431.5156,200.9375 431.5156,197.8125 Q431.5156,194.6875 432.8281,193.0313 Q434.1563,191.375 436.6563,191.375 Q437.3594,191.375 438,191.5313 Q438.6563,191.6875 439.2188,191.9844 L439.2188,194.7031 Q438.5938,194.125 438,193.8594 Q437.4063,193.5781 436.7813,193.5781 Q435.4375,193.5781 434.75,194.6563 Q434.0625,195.7188 434.0625,197.8125 Q434.0625,199.9063 434.75,200.9844 Q435.4375,202.0469 436.7813,202.0469 Q437.4063,202.0469 438,201.7813 Q438.5938,201.5 439.2188,200.9219 L439.2188,203.6406 Z " fill="#000000"/><text fill="#000000" font-family="sans-serif" font-size="14" lengthAdjust="spacing" textLength="79" x="456.75" y="202.8467">DogFactory</text><line style="stroke:#181818;stroke-width:0.5;" x1="391.5" x2="568.5" y1="214" y2="214"/><line style="stroke:#181818;stroke-width:0.5;" x1="391.5" x2="568.5" y1="222" y2="222"/><ellipse cx="401.5" cy="235.6484" fill="#84BE84" rx="3" ry="3" style="stroke:#038048;stroke-width:1.0;"/><text fill="#000000" font-family="sans-serif" font-size="14" lengthAdjust="spacing" textLength="153" x="410.5" y="238.9951">createAnimal(): Animal</text></g><!--MD5=[edaa3c7844718975a916a4e075c2ea22]
reverse link DesignPatterns.Creational.FactoryMethod.Animal to DesignPatterns.Creational.FactoryMethod.Cat--><g id="link_DesignPatterns.Creational.FactoryMethod.Animal_DesignPatterns.Creational.FactoryMethod.Cat"><path codeLine="27" d="M260.34,262.21 C245.21,282.24 227.98,305.04 214.49,322.91 " fill="none" id="DesignPatterns.Creational.FactoryMethod.Animal-backto-DesignPatterns.Creational.FactoryMethod.Cat" style="stroke:#181818;stroke-width:1.0;stroke-dasharray:7.0,7.0;"/><polygon fill="none" points="254.8,257.93,272.44,246.19,265.97,266.37,254.8,257.93" style="stroke:#181818;stroke-width:1.0;"/><text fill="#000000" font-family="sans-serif" font-size="13" lengthAdjust="spacing" textLength="76" x="250" y="289.0669">Implements</text></g><!--MD5=[5642668d7bc3df0a2005634755ed463d]
reverse link DesignPatterns.Creational.FactoryMethod.Animal to DesignPatterns.Creational.FactoryMethod.Dog--><g id="link_DesignPatterns.Creational.FactoryMethod.Animal_DesignPatterns.Creational.FactoryMethod.Dog"><path codeLine="28" d="M327.84,263.11 C340.96,282.93 355.78,305.31 367.42,322.91 " fill="none" id="DesignPatterns.Creational.FactoryMethod.Animal-backto-DesignPatterns.Creational.FactoryMethod.Dog" style="stroke:#181818;stroke-width:1.0;stroke-dasharray:7.0,7.0;"/><polygon fill="none" points="321.85,266.74,316.65,246.19,333.52,259.01,321.85,266.74" style="stroke:#181818;stroke-width:1.0;"/><text fill="#000000" font-family="sans-serif" font-size="13" lengthAdjust="spacing" textLength="76" x="348" y="289.0669">Implements</text></g><!--MD5=[a7e31138daac4c6e89a1a2b453dd220c]
reverse link DesignPatterns.Creational.FactoryMethod.AnimalFactory to DesignPatterns.Creational.FactoryMethod.CatFactory--><g id="link_DesignPatterns.Creational.FactoryMethod.AnimalFactory_DesignPatterns.Creational.FactoryMethod.CatFactory"><path codeLine="30" d="M147.89,123.93 C140.09,143.28 131.4,164.85 124.53,181.91 " fill="none" id="DesignPatterns.Creational.FactoryMethod.AnimalFactory-backto-DesignPatterns.Creational.FactoryMethod.CatFactory" style="stroke:#181818;stroke-width:1.0;"/><polygon fill="none" points="141.47,121.13,155.43,105.19,154.45,126.36,141.47,121.13" style="stroke:#181818;stroke-width:1.0;"/><text fill="#000000" font-family="sans-serif" font-size="13" lengthAdjust="spacing" textLength="71" x="144" y="148.0669">Inheritance</text></g><!--MD5=[04b80c9056226981e0135df116afb473]
reverse link DesignPatterns.Creational.FactoryMethod.AnimalFactory to DesignPatterns.Creational.FactoryMethod.DogFactory--><g id="link_DesignPatterns.Creational.FactoryMethod.AnimalFactory_DesignPatterns.Creational.FactoryMethod.DogFactory"><path codeLine="31" d="M256.09,113.25 C304.92,135 364.78,161.67 410.31,181.95 " fill="none" id="DesignPatterns.Creational.FactoryMethod.AnimalFactory-backto-DesignPatterns.Creational.FactoryMethod.DogFactory" style="stroke:#181818;stroke-width:1.0;"/><polygon fill="none" points="253.05,119.55,237.63,105.02,258.75,106.77,253.05,119.55" style="stroke:#181818;stroke-width:1.0;"/><text fill="#000000" font-family="sans-serif" font-size="13" lengthAdjust="spacing" textLength="71" x="343" y="148.0669">Inheritance</text></g><!--MD5=[f369580f4c1f50608154609771cfc9f7]
reverse link DesignPatterns.Creational.FactoryMethod.CatFactory to DesignPatterns.Creational.FactoryMethod.Cat--><g id="link_DesignPatterns.Creational.FactoryMethod.CatFactory_DesignPatterns.Creational.FactoryMethod.Cat"><path codeLine="33" d="M118.32,258.76 C121.14,270.36 125.19,282.56 131,293 C137,303.77 145.41,313.97 154.05,322.84 " fill="none" id="DesignPatterns.Creational.FactoryMethod.CatFactory-backto-DesignPatterns.Creational.FactoryMethod.Cat" style="stroke:#181818;stroke-width:1.0;"/><polygon fill="#181818" points="115.64,246.03,112.9592,252.7243,118.1075,257.7736,120.7883,251.0793,115.64,246.03" style="stroke:#181818;stroke-width:1.0;"/><text fill="#000000" font-family="sans-serif" font-size="13" lengthAdjust="spacing" textLength="50" x="132" y="289.0669">Creates</text></g><!--MD5=[cdc2ab8e719b28ed51ad0f1c9a0b98cb]
reverse link DesignPatterns.Creational.FactoryMethod.DogFactory to DesignPatterns.Creational.FactoryMethod.Dog--><g id="link_DesignPatterns.Creational.FactoryMethod.DogFactory_DesignPatterns.Creational.FactoryMethod.Dog"><path codeLine="34" d="M455.4,257.45 C448.38,269.11 440.57,281.66 433,293 C426.42,302.85 418.91,313.31 411.93,322.74 " fill="none" id="DesignPatterns.Creational.FactoryMethod.DogFactory-backto-DesignPatterns.Creational.FactoryMethod.Dog" style="stroke:#181818;stroke-width:1.0;"/><polygon fill="#181818" points="462.12,246.16,455.6124,249.2666,455.9771,256.4685,462.4847,253.3619,462.12,246.16" style="stroke:#181818;stroke-width:1.0;"/><text fill="#000000" font-family="sans-serif" font-size="13" lengthAdjust="spacing" textLength="50" x="444" y="289.0669">Creates</text></g><!--MD5=[334c17c8ad1d7517e9f18ca432bef3e8]
@startuml
namespace DesignPatterns.Creational.FactoryMethod {

  interface Animal {
    +makeSound()
  }

  abstract class AnimalFactory {
    +createAnimal(): Animal
  }

  class Cat {
    +makeSound()
  }

  class Dog {
    +makeSound()
  }

  class CatFactory {
    +createAnimal(): Animal
  }

  class DogFactory {
    +createAnimal(): Animal
  }

  Animal <|.. Cat : Implements
  Animal <|.. Dog : Implements

  AnimalFactory <|- - CatFactory : Inheritance
  AnimalFactory <|- - DogFactory : Inheritance

  CatFactory *- - Cat : Creates
  DogFactory *- - Dog : Creates

}
@enduml

PlantUML version 1.2022.7(Mon Aug 22 17:01:30 UTC 2022)
(GPL source distribution)
Java Runtime: OpenJDK Runtime Environment
JVM: OpenJDK 64-Bit Server VM
Default Encoding: UTF-8
Language: en
Country: null
--></g></svg>