<?xml version="1.0" encoding="UTF-8" standalone="no"?><svg xmlns="http://www.w3.org/2000/svg" xmlns:xlink="http://www.w3.org/1999/xlink" contentStyleType="text/css" height="318px" preserveAspectRatio="none" style="width:666px;height:318px;background:#FFFFFF;" version="1.1" viewBox="0 0 666 318" width="666px" zoomAndPan="magnify"><defs/><g><!--MD5=[6d58cea9da4bd5e2e7c903a3839066a4]
cluster DesignPatterns.Behavioral.Observer--><g id="cluster_DesignPatterns.Behavioral.Observer"><path d="M8.5,6 L296.5,6 A3.75,3.75 0 0 1 299,8.5 L306,28.2969 L656.5,28.2969 A2.5,2.5 0 0 1 659,30.7969 L659,308.5 A2.5,2.5 0 0 1 656.5,311 L8.5,311 A2.5,2.5 0 0 1 6,308.5 L6,8.5 A2.5,2.5 0 0 1 8.5,6 " fill="none" style="stroke:#000000;stroke-width:1.5;"/><line style="stroke:#000000;stroke-width:1.5;" x1="6" x2="306" y1="28.2969" y2="28.2969"/><text fill="#000000" font-family="sans-serif" font-size="14" font-weight="bold" lengthAdjust="spacing" textLength="287" x="10" y="20.9951">DesignPatterns.Behavioral.Observer</text></g><!--MD5=[5eb44a909b127f522f445efe341aff7f]
class DesignPatterns.Behavioral.Observer.Subject--><g id="elem_DesignPatterns.Behavioral.Observer.Subject"><rect codeLine="3" fill="#F1F1F1" height="96.8906" id="DesignPatterns.Behavioral.Observer.Subject" rx="2.5" ry="2.5" style="stroke:#181818;stroke-width:0.5;" width="254" x="389" y="190"/><ellipse cx="485.75" cy="206" fill="#B4A7E5" rx="11" ry="11" style="stroke:#181818;stroke-width:1.0;"/><path d="M481.6719,201.7656 L481.6719,199.6094 L489.0625,199.6094 L489.0625,201.7656 L486.5938,201.7656 L486.5938,209.8438 L489.0625,209.8438 L489.0625,212 L481.6719,212 L481.6719,209.8438 L484.1406,209.8438 L484.1406,201.7656 L481.6719,201.7656 Z " fill="#000000"/><text fill="#000000" font-family="sans-serif" font-size="14" font-style="italic" lengthAdjust="spacing" textLength="52" x="506.25" y="210.8467">Subject</text><line style="stroke:#181818;stroke-width:0.5;" x1="390" x2="642" y1="222" y2="222"/><line style="stroke:#181818;stroke-width:0.5;" x1="390" x2="642" y1="230" y2="230"/><ellipse cx="400" cy="243.6484" fill="#84BE84" rx="3" ry="3" style="stroke:#038048;stroke-width:1.0;"/><text fill="#000000" font-family="sans-serif" font-size="14" lengthAdjust="spacing" textLength="223" x="409" y="246.9951">attach(observer: Observer): void</text><ellipse cx="400" cy="259.9453" fill="#84BE84" rx="3" ry="3" style="stroke:#038048;stroke-width:1.0;"/><text fill="#000000" font-family="sans-serif" font-size="14" lengthAdjust="spacing" textLength="228" x="409" y="263.292">detach(observer: Observer): void</text><ellipse cx="400" cy="276.2422" fill="#84BE84" rx="3" ry="3" style="stroke:#038048;stroke-width:1.0;"/><text fill="#000000" font-family="sans-serif" font-size="14" lengthAdjust="spacing" textLength="84" x="409" y="279.5889">notify(): void</text></g><!--MD5=[79328613f49124920e3448a25f15ce59]
class DesignPatterns.Behavioral.Observer.Observer--><g id="elem_DesignPatterns.Behavioral.Observer.Observer"><rect codeLine="9" fill="#F1F1F1" height="64.2969" id="DesignPatterns.Behavioral.Observer.Observer" rx="2.5" ry="2.5" style="stroke:#181818;stroke-width:0.5;" width="234" x="369" y="41"/><ellipse cx="450.25" cy="57" fill="#B4A7E5" rx="11" ry="11" style="stroke:#181818;stroke-width:1.0;"/><path d="M446.1719,52.7656 L446.1719,50.6094 L453.5625,50.6094 L453.5625,52.7656 L451.0938,52.7656 L451.0938,60.8438 L453.5625,60.8438 L453.5625,63 L446.1719,63 L446.1719,60.8438 L448.6406,60.8438 L448.6406,52.7656 L446.1719,52.7656 Z " fill="#000000"/><text fill="#000000" font-family="sans-serif" font-size="14" font-style="italic" lengthAdjust="spacing" textLength="63" x="470.75" y="61.8467">Observer</text><line style="stroke:#181818;stroke-width:0.5;" x1="370" x2="602" y1="73" y2="73"/><line style="stroke:#181818;stroke-width:0.5;" x1="370" x2="602" y1="81" y2="81"/><ellipse cx="380" cy="94.6484" fill="#84BE84" rx="3" ry="3" style="stroke:#038048;stroke-width:1.0;"/><text fill="#000000" font-family="sans-serif" font-size="14" lengthAdjust="spacing" textLength="208" x="389" y="97.9951">update(subject: Subject): void</text></g><!--MD5=[e32496e93b5595bcf4be4215210c540a]
class DesignPatterns.Behavioral.Observer.ConcreteSubject--><g id="elem_DesignPatterns.Behavioral.Observer.ConcreteSubject"><rect codeLine="13" fill="#F1F1F1" height="113.1875" id="DesignPatterns.Behavioral.Observer.ConcreteSubject" rx="2.5" ry="2.5" style="stroke:#181818;stroke-width:0.5;" width="254" x="22" y="182"/><ellipse cx="86.75" cy="198" fill="#ADD1B2" rx="11" ry="11" style="stroke:#181818;stroke-width:1.0;"/><path d="M89.7188,203.6406 Q89.1406,203.9375 88.5,204.0781 Q87.8594,204.2344 87.1563,204.2344 Q84.6563,204.2344 83.3281,202.5938 Q82.0156,200.9375 82.0156,197.8125 Q82.0156,194.6875 83.3281,193.0313 Q84.6563,191.375 87.1563,191.375 Q87.8594,191.375 88.5,191.5313 Q89.1563,191.6875 89.7188,191.9844 L89.7188,194.7031 Q89.0938,194.125 88.5,193.8594 Q87.9063,193.5781 87.2813,193.5781 Q85.9375,193.5781 85.25,194.6563 Q84.5625,195.7188 84.5625,197.8125 Q84.5625,199.9063 85.25,200.9844 Q85.9375,202.0469 87.2813,202.0469 Q87.9063,202.0469 88.5,201.7813 Q89.0938,201.5 89.7188,200.9219 L89.7188,203.6406 Z " fill="#000000"/><text fill="#000000" font-family="sans-serif" font-size="14" lengthAdjust="spacing" textLength="116" x="107.25" y="202.8467">ConcreteSubject</text><line style="stroke:#181818;stroke-width:0.5;" x1="23" x2="275" y1="214" y2="214"/><rect fill="none" height="6" style="stroke:#C82930;stroke-width:1.0;" width="6" x="30" y="224.6484"/><text fill="#000000" font-family="sans-serif" font-size="14" lengthAdjust="spacing" textLength="195" x="42" y="230.9951">observers: array of Observer</text><line style="stroke:#181818;stroke-width:0.5;" x1="23" x2="275" y1="238.2969" y2="238.2969"/><ellipse cx="33" cy="251.9453" fill="#84BE84" rx="3" ry="3" style="stroke:#038048;stroke-width:1.0;"/><text fill="#000000" font-family="sans-serif" font-size="14" lengthAdjust="spacing" textLength="223" x="42" y="255.292">attach(observer: Observer): void</text><ellipse cx="33" cy="268.2422" fill="#84BE84" rx="3" ry="3" style="stroke:#038048;stroke-width:1.0;"/><text fill="#000000" font-family="sans-serif" font-size="14" lengthAdjust="spacing" textLength="228" x="42" y="271.5889">detach(observer: Observer): void</text><ellipse cx="33" cy="284.5391" fill="#84BE84" rx="3" ry="3" style="stroke:#038048;stroke-width:1.0;"/><text fill="#000000" font-family="sans-serif" font-size="14" lengthAdjust="spacing" textLength="84" x="42" y="287.8857">notify(): void</text></g><!--MD5=[1ef4a74cb869c75cc78915b94a195e64]
class DesignPatterns.Behavioral.Observer.ConcreteObserver--><g id="elem_DesignPatterns.Behavioral.Observer.ConcreteObserver"><rect codeLine="20" fill="#F1F1F1" height="64.2969" id="DesignPatterns.Behavioral.Observer.ConcreteObserver" rx="2.5" ry="2.5" style="stroke:#181818;stroke-width:0.5;" width="234" x="22" y="41"/><ellipse cx="71.25" cy="57" fill="#ADD1B2" rx="11" ry="11" style="stroke:#181818;stroke-width:1.0;"/><path d="M74.2188,62.6406 Q73.6406,62.9375 73,63.0781 Q72.3594,63.2344 71.6563,63.2344 Q69.1563,63.2344 67.8281,61.5938 Q66.5156,59.9375 66.5156,56.8125 Q66.5156,53.6875 67.8281,52.0313 Q69.1563,50.375 71.6563,50.375 Q72.3594,50.375 73,50.5313 Q73.6563,50.6875 74.2188,50.9844 L74.2188,53.7031 Q73.5938,53.125 73,52.8594 Q72.4063,52.5781 71.7813,52.5781 Q70.4375,52.5781 69.75,53.6563 Q69.0625,54.7188 69.0625,56.8125 Q69.0625,58.9063 69.75,59.9844 Q70.4375,61.0469 71.7813,61.0469 Q72.4063,61.0469 73,60.7813 Q73.5938,60.5 74.2188,59.9219 L74.2188,62.6406 Z " fill="#000000"/><text fill="#000000" font-family="sans-serif" font-size="14" lengthAdjust="spacing" textLength="127" x="91.75" y="61.8467">ConcreteObserver</text><line style="stroke:#181818;stroke-width:0.5;" x1="23" x2="255" y1="73" y2="73"/><line style="stroke:#181818;stroke-width:0.5;" x1="23" x2="255" y1="81" y2="81"/><ellipse cx="33" cy="94.6484" fill="#84BE84" rx="3" ry="3" style="stroke:#038048;stroke-width:1.0;"/><text fill="#000000" font-family="sans-serif" font-size="14" lengthAdjust="spacing" textLength="208" x="42" y="97.9951">update(subject: Subject): void</text></g><!--MD5=[2f07c8280dd072fe152999a0aabac1b6]
link DesignPatterns.Behavioral.Observer.ConcreteSubject to DesignPatterns.Behavioral.Observer.Subject--><g id="link_DesignPatterns.Behavioral.Observer.ConcreteSubject_DesignPatterns.Behavioral.Observer.Subject"><path codeLine="26" d="M276.07,238.5 C310.81,238.5 348.55,238.5 383.58,238.5 " fill="none" id="DesignPatterns.Behavioral.Observer.ConcreteSubject-to-DesignPatterns.Behavioral.Observer.Subject" style="stroke:#181818;stroke-width:1.0;"/><polygon fill="#181818" points="388.73,238.5,379.73,234.5,383.73,238.5,379.73,242.5,388.73,238.5" style="stroke:#181818;stroke-width:1.0;"/><text fill="#000000" font-family="sans-serif" font-size="13" lengthAdjust="spacing" textLength="76" x="294.5" y="231.5669">implements</text></g><!--MD5=[78a3eb486fe2ae9a9e7be77ed5f4b22d]
link DesignPatterns.Behavioral.Observer.ConcreteObserver to DesignPatterns.Behavioral.Observer.Observer--><g id="link_DesignPatterns.Behavioral.Observer.ConcreteObserver_DesignPatterns.Behavioral.Observer.Observer"><path codeLine="27" d="M256.48,73 C291.05,73 328.95,73 363.82,73 " fill="none" id="DesignPatterns.Behavioral.Observer.ConcreteObserver-to-DesignPatterns.Behavioral.Observer.Observer" style="stroke:#181818;stroke-width:1.0;"/><polygon fill="#181818" points="368.94,73,359.94,69,363.94,73,359.94,77,368.94,73" style="stroke:#181818;stroke-width:1.0;"/><text fill="#000000" font-family="sans-serif" font-size="13" lengthAdjust="spacing" textLength="76" x="274.5" y="66.0669">implements</text></g><!--MD5=[ce2e1b27dac7c34b425419fde80c412a]
link DesignPatterns.Behavioral.Observer.Observer to DesignPatterns.Behavioral.Observer.ConcreteSubject--><g id="link_DesignPatterns.Behavioral.Observer.Observer_DesignPatterns.Behavioral.Observer.ConcreteSubject"><path codeLine="28" d="M409.96,110.89 C370.2,130.18 274.2257,176.7405 274.2257,176.7405 " fill="none" id="DesignPatterns.Behavioral.Observer.Observer-DesignPatterns.Behavioral.Observer.ConcreteSubject" style="stroke:#181818;stroke-width:1.0;"/><polygon fill="none" points="263.43,181.98,270.5744,182.9588,274.2257,176.7405,267.0814,175.7617,263.43,181.98" style="stroke:#181818;stroke-width:1.0;"/><polygon fill="#181818" points="421.82,105.14,411.9765,105.4663,417.3207,107.321,415.4661,112.6651,421.82,105.14" style="stroke:#181818;stroke-width:1.0;"/><line style="stroke:#181818;stroke-width:1.0;" x1="417.3207" x2="410.125" y1="107.321" y2="110.815"/><text fill="#000000" font-family="sans-serif" font-size="13" lengthAdjust="spacing" textLength="63" x="358" y="148.0669">observers</text></g><!--MD5=[2bed634b4ad7b4f564a1c36367c58a60]
@startuml
namespace DesignPatterns.Behavioral.Observer {

    interface Subject {
        +attach(observer: Observer): void
        +detach(observer: Observer): void
        +notify(): void
    }

    interface Observer {
        +update(subject: Subject): void
    }

    class ConcreteSubject {
        -observers: array of Observer
        +attach(observer: Observer): void
        +detach(observer: Observer): void
        +notify(): void
    }

    class ConcreteObserver {
        +update(subject: Subject): void
    }

}

DesignPatterns.Behavioral.Observer.ConcreteSubject -right-> DesignPatterns.Behavioral.Observer.Subject: implements
DesignPatterns.Behavioral.Observer.ConcreteObserver -right-> DesignPatterns.Behavioral.Observer.Observer: implements
DesignPatterns.Behavioral.Observer.ConcreteSubject o-up-> DesignPatterns.Behavioral.Observer.Observer: observers
@enduml

PlantUML version 1.2022.7(Mon Aug 22 17:01:30 UTC 2022)
(GPL source distribution)
Java Runtime: OpenJDK Runtime Environment
JVM: OpenJDK 64-Bit Server VM
Default Encoding: UTF-8
Language: en
Country: null
--></g></svg>