<?xml version="1.0" encoding="UTF-8" standalone="no"?><svg xmlns="http://www.w3.org/2000/svg" xmlns:xlink="http://www.w3.org/1999/xlink" contentStyleType="text/css" height="229px" preserveAspectRatio="none" style="width:768px;height:229px;background:#FFFFFF;" version="1.1" viewBox="0 0 768 229" width="768px" zoomAndPan="magnify"><defs/><g><!--MD5=[9374a074218506a16457e0231a8dab35]
cluster DesignPatterns.Structural.Composite--><g id="cluster_DesignPatterns.Structural.Composite"><path d="M8.5,39.5659 L302.5,39.5659 A3.75,3.75 0 0 1 305,42.0659 L312,61.8628 L758.5,61.8628 A2.5,2.5 0 0 1 761,64.3628 L761,220.0659 A2.5,2.5 0 0 1 758.5,222.5659 L8.5,222.5659 A2.5,2.5 0 0 1 6,220.0659 L6,42.0659 A2.5,2.5 0 0 1 8.5,39.5659 " fill="none" style="stroke:#000000;stroke-width:1.5;"/><line style="stroke:#000000;stroke-width:1.5;" x1="6" x2="312" y1="61.8628" y2="61.8628"/><text fill="#000000" font-family="sans-serif" font-size="14" font-weight="bold" lengthAdjust="spacing" textLength="293" x="10" y="54.561">DesignPatterns.Structural.Composite</text></g><!--MD5=[6e5423a6748806cea57f3a518b963eba]
class DesignPatterns.Structural.Composite.Component--><g id="elem_DesignPatterns.Structural.Composite.Component"><rect codeLine="3" fill="#F1F1F1" height="64.2969" id="DesignPatterns.Structural.Composite.Component" rx="2.5" ry="2.5" style="stroke:#181818;stroke-width:0.5;" width="139" x="605.5" y="118.0659"/><ellipse cx="631.75" cy="134.0659" fill="#B4A7E5" rx="11" ry="11" style="stroke:#181818;stroke-width:1.0;"/><path d="M627.6719,129.8315 L627.6719,127.6753 L635.0625,127.6753 L635.0625,129.8315 L632.5938,129.8315 L632.5938,137.9097 L635.0625,137.9097 L635.0625,140.0659 L627.6719,140.0659 L627.6719,137.9097 L630.1406,137.9097 L630.1406,129.8315 L627.6719,129.8315 Z " fill="#000000"/><text fill="#000000" font-family="sans-serif" font-size="14" font-style="italic" lengthAdjust="spacing" textLength="82" x="648.25" y="138.9126">Component</text><line style="stroke:#181818;stroke-width:0.5;" x1="606.5" x2="743.5" y1="150.0659" y2="150.0659"/><line style="stroke:#181818;stroke-width:0.5;" x1="606.5" x2="743.5" y1="158.0659" y2="158.0659"/><ellipse cx="616.5" cy="171.7144" fill="#84BE84" rx="3" ry="3" style="stroke:#038048;stroke-width:1.0;"/><text fill="#000000" font-family="sans-serif" font-size="14" lengthAdjust="spacing" textLength="113" x="625.5" y="175.061">operation(): void</text></g><!--MD5=[a83309ceccfc4c67c06cfd569f330554]
class DesignPatterns.Structural.Composite.Leaf--><g id="elem_DesignPatterns.Structural.Composite.Leaf"><rect codeLine="7" fill="#F1F1F1" height="64.2969" id="DesignPatterns.Structural.Composite.Leaf" rx="2.5" ry="2.5" style="stroke:#181818;stroke-width:0.5;" width="139" x="353.5" y="118.0659"/><ellipse cx="404.75" cy="134.0659" fill="#ADD1B2" rx="11" ry="11" style="stroke:#181818;stroke-width:1.0;"/><path d="M407.7188,139.7065 Q407.1406,140.0034 406.5,140.144 Q405.8594,140.3003 405.1563,140.3003 Q402.6563,140.3003 401.3281,138.6597 Q400.0156,137.0034 400.0156,133.8784 Q400.0156,130.7534 401.3281,129.0972 Q402.6563,127.4409 405.1563,127.4409 Q405.8594,127.4409 406.5,127.5972 Q407.1563,127.7534 407.7188,128.0503 L407.7188,130.769 Q407.0938,130.1909 406.5,129.9253 Q405.9063,129.644 405.2813,129.644 Q403.9375,129.644 403.25,130.7222 Q402.5625,131.7847 402.5625,133.8784 Q402.5625,135.9722 403.25,137.0503 Q403.9375,138.1128 405.2813,138.1128 Q405.9063,138.1128 406.5,137.8472 Q407.0938,137.5659 407.7188,136.9878 L407.7188,139.7065 Z " fill="#000000"/><text fill="#000000" font-family="sans-serif" font-size="14" lengthAdjust="spacing" textLength="28" x="425.25" y="138.9126">Leaf</text><line style="stroke:#181818;stroke-width:0.5;" x1="354.5" x2="491.5" y1="150.0659" y2="150.0659"/><line style="stroke:#181818;stroke-width:0.5;" x1="354.5" x2="491.5" y1="158.0659" y2="158.0659"/><ellipse cx="364.5" cy="171.7144" fill="#84BE84" rx="3" ry="3" style="stroke:#038048;stroke-width:1.0;"/><text fill="#000000" font-family="sans-serif" font-size="14" lengthAdjust="spacing" textLength="113" x="373.5" y="175.061">operation(): void</text></g><!--MD5=[9c63317b6220463dd4ea8239a6c115ca]
class DesignPatterns.Structural.Composite.Composite--><g id="elem_DesignPatterns.Structural.Composite.Composite"><rect codeLine="11" fill="#F1F1F1" height="113.1875" id="DesignPatterns.Structural.Composite.Composite" rx="2.5" ry="2.5" style="stroke:#181818;stroke-width:0.5;" width="296" x="22" y="93.5659"/><ellipse cx="128.25" cy="109.5659" fill="#ADD1B2" rx="11" ry="11" style="stroke:#181818;stroke-width:1.0;"/><path d="M131.2188,115.2065 Q130.6406,115.5034 130,115.644 Q129.3594,115.8003 128.6563,115.8003 Q126.1563,115.8003 124.8281,114.1597 Q123.5156,112.5034 123.5156,109.3784 Q123.5156,106.2534 124.8281,104.5972 Q126.1563,102.9409 128.6563,102.9409 Q129.3594,102.9409 130,103.0972 Q130.6563,103.2534 131.2188,103.5503 L131.2188,106.269 Q130.5938,105.6909 130,105.4253 Q129.4063,105.144 128.7813,105.144 Q127.4375,105.144 126.75,106.2222 Q126.0625,107.2847 126.0625,109.3784 Q126.0625,111.4722 126.75,112.5503 Q127.4375,113.6128 128.7813,113.6128 Q129.4063,113.6128 130,113.3472 Q130.5938,113.0659 131.2188,112.4878 L131.2188,115.2065 Z " fill="#000000"/><text fill="#000000" font-family="sans-serif" font-size="14" lengthAdjust="spacing" textLength="75" x="148.75" y="114.4126">Composite</text><line style="stroke:#181818;stroke-width:0.5;" x1="23" x2="317" y1="125.5659" y2="125.5659"/><rect fill="none" height="6" style="stroke:#C82930;stroke-width:1.0;" width="6" x="30" y="136.2144"/><text fill="#000000" font-family="sans-serif" font-size="14" lengthAdjust="spacing" textLength="156" x="42" y="142.561">children: Component[]</text><line style="stroke:#181818;stroke-width:0.5;" x1="23" x2="317" y1="149.8628" y2="149.8628"/><ellipse cx="33" cy="163.5112" fill="#84BE84" rx="3" ry="3" style="stroke:#038048;stroke-width:1.0;"/><text fill="#000000" font-family="sans-serif" font-size="14" lengthAdjust="spacing" textLength="244" x="42" y="166.8579">add(component: Component): void</text><ellipse cx="33" cy="179.8081" fill="#84BE84" rx="3" ry="3" style="stroke:#038048;stroke-width:1.0;"/><text fill="#000000" font-family="sans-serif" font-size="14" lengthAdjust="spacing" textLength="270" x="42" y="183.1548">remove(component: Component): void</text><ellipse cx="33" cy="196.105" fill="#84BE84" rx="3" ry="3" style="stroke:#038048;stroke-width:1.0;"/><text fill="#000000" font-family="sans-serif" font-size="14" lengthAdjust="spacing" textLength="113" x="42" y="199.4517">operation(): void</text></g><!--MD5=[eef867e5473d84641bb4fd7fdbb0cc94]
link DesignPatterns.Structural.Composite.Leaf to DesignPatterns.Structural.Composite.Component--><g id="link_DesignPatterns.Structural.Composite.Leaf_DesignPatterns.Structural.Composite.Component"><path codeLine="20" d="M492.53,150.0659 C525.85,150.0659 565.83,150.0659 599.85,150.0659 " fill="none" id="DesignPatterns.Structural.Composite.Leaf-to-DesignPatterns.Structural.Composite.Component" style="stroke:#181818;stroke-width:1.0;"/><polygon fill="#181818" points="605.26,150.0659,596.26,146.0659,600.26,150.0659,596.26,154.0659,605.26,150.0659" style="stroke:#181818;stroke-width:1.0;"/><text fill="#000000" font-family="sans-serif" font-size="13" lengthAdjust="spacing" textLength="76" x="511" y="143.1328">implements</text></g><!--MD5=[029541a75579afaca0634856760fdb0b]
link DesignPatterns.Structural.Composite.Composite to DesignPatterns.Structural.Composite.Component--><g id="link_DesignPatterns.Structural.Composite.Composite_DesignPatterns.Structural.Composite.Component"><path codeLine="21" d="M232.09,93.3259 C261.37,70.3359 298.15,46.4359 336,34.5659 C409.79,11.4259 436.24,11.3159 510,34.5659 C559.67,50.2259 607.4,86.7559 638.63,114.5759 " fill="none" id="DesignPatterns.Structural.Composite.Composite-to-DesignPatterns.Structural.Composite.Component" style="stroke:#181818;stroke-width:1.0;"/><polygon fill="#181818" points="642.35,117.9259,638.3171,108.9406,638.6264,114.589,632.978,114.8984,642.35,117.9259" style="stroke:#181818;stroke-width:1.0;"/><text fill="#000000" font-family="sans-serif" font-size="13" lengthAdjust="spacing" textLength="76" x="424" y="19.6328">implements</text></g><!--MD5=[e5dba64b8f084911d1d0cbb530c591bf]
@startuml
namespace DesignPatterns.Structural.Composite {

    interface Component {
        +operation(): void
    }

    class Leaf {
        +operation(): void
    }

    class Composite {
        -children: Component[]
        +add(component: Component): void
        +remove(component: Component): void
        +operation(): void
    }

}

DesignPatterns.Structural.Composite.Leaf -right-> DesignPatterns.Structural.Composite.Component: implements
DesignPatterns.Structural.Composite.Composite -right-> DesignPatterns.Structural.Composite.Component: implements
@enduml

PlantUML version 1.2022.7(Mon Aug 22 17:01:30 UTC 2022)
(GPL source distribution)
Java Runtime: OpenJDK Runtime Environment
JVM: OpenJDK 64-Bit Server VM
Default Encoding: UTF-8
Language: en
Country: null
--></g></svg>