<?xml version="1.0" encoding="UTF-8" standalone="no"?><svg xmlns="http://www.w3.org/2000/svg" xmlns:xlink="http://www.w3.org/1999/xlink" contentStyleType="text/css" height="377px" preserveAspectRatio="none" style="width:627px;height:377px;background:#FFFFFF;" version="1.1" viewBox="0 0 627 377" width="627px" zoomAndPan="magnify"><defs/><g><!--MD5=[60d6b92408f98aed8df94d5c6e04aa63]
class State--><g id="elem_State"><rect codeLine="1" fill="#F1F1F1" height="64.2969" id="State" rx="2.5" ry="2.5" style="stroke:#181818;stroke-width:0.5;" width="120" x="249" y="181"/><ellipse cx="287.4" cy="197" fill="#B4A7E5" rx="11" ry="11" style="stroke:#181818;stroke-width:1.0;"/><path d="M283.3219,192.7656 L283.3219,190.6094 L290.7125,190.6094 L290.7125,192.7656 L288.2438,192.7656 L288.2438,200.8438 L290.7125,200.8438 L290.7125,203 L283.3219,203 L283.3219,200.8438 L285.7906,200.8438 L285.7906,192.7656 L283.3219,192.7656 Z " fill="#000000"/><text fill="#000000" font-family="sans-serif" font-size="14" font-style="italic" lengthAdjust="spacing" textLength="36" x="306.6" y="201.8467">State</text><line style="stroke:#181818;stroke-width:0.5;" x1="250" x2="368" y1="213" y2="213"/><line style="stroke:#181818;stroke-width:0.5;" x1="250" x2="368" y1="221" y2="221"/><ellipse cx="260" cy="234.6484" fill="#84BE84" rx="3" ry="3" style="stroke:#038048;stroke-width:1.0;"/><text fill="#000000" font-family="sans-serif" font-size="14" lengthAdjust="spacing" textLength="94" x="269" y="237.9951">handle(): void</text></g><!--MD5=[6754354365917abf8f1a56af1b7e344c]
class Context--><g id="elem_Context"><rect codeLine="5" fill="#F1F1F1" height="96.8906" id="Context" rx="2.5" ry="2.5" style="stroke:#181818;stroke-width:0.5;" width="211" x="203.5" y="7"/><ellipse cx="277.75" cy="23" fill="#ADD1B2" rx="11" ry="11" style="stroke:#181818;stroke-width:1.0;"/><path d="M280.7188,28.6406 Q280.1406,28.9375 279.5,29.0781 Q278.8594,29.2344 278.1563,29.2344 Q275.6563,29.2344 274.3281,27.5938 Q273.0156,25.9375 273.0156,22.8125 Q273.0156,19.6875 274.3281,18.0313 Q275.6563,16.375 278.1563,16.375 Q278.8594,16.375 279.5,16.5313 Q280.1563,16.6875 280.7188,16.9844 L280.7188,19.7031 Q280.0938,19.125 279.5,18.8594 Q278.9063,18.5781 278.2813,18.5781 Q276.9375,18.5781 276.25,19.6563 Q275.5625,20.7188 275.5625,22.8125 Q275.5625,24.9063 276.25,25.9844 Q276.9375,27.0469 278.2813,27.0469 Q278.9063,27.0469 279.5,26.7813 Q280.0938,26.5 280.7188,25.9219 L280.7188,28.6406 Z " fill="#000000"/><text fill="#000000" font-family="sans-serif" font-size="14" lengthAdjust="spacing" textLength="54" x="298.25" y="27.8467">Context</text><line style="stroke:#181818;stroke-width:0.5;" x1="204.5" x2="413.5" y1="39" y2="39"/><rect fill="none" height="6" style="stroke:#C82930;stroke-width:1.0;" width="6" x="211.5" y="49.6484"/><text fill="#000000" font-family="sans-serif" font-size="14" lengthAdjust="spacing" textLength="80" x="223.5" y="55.9951">state: State</text><line style="stroke:#181818;stroke-width:0.5;" x1="204.5" x2="413.5" y1="63.2969" y2="63.2969"/><ellipse cx="214.5" cy="76.9453" fill="#84BE84" rx="3" ry="3" style="stroke:#038048;stroke-width:1.0;"/><text fill="#000000" font-family="sans-serif" font-size="14" lengthAdjust="spacing" textLength="185" x="223.5" y="80.292">setState(state: State): void</text><ellipse cx="214.5" cy="93.2422" fill="#84BE84" rx="3" ry="3" style="stroke:#038048;stroke-width:1.0;"/><text fill="#000000" font-family="sans-serif" font-size="14" lengthAdjust="spacing" textLength="132" x="223.5" y="96.5889">requestPrint(): void</text></g><!--MD5=[49c293e7b586f80bbf4013178c064b81]
class IdleState--><g id="elem_IdleState"><rect codeLine="11" fill="#F1F1F1" height="64.2969" id="IdleState" rx="2.5" ry="2.5" style="stroke:#181818;stroke-width:0.5;" width="120" x="7" y="306"/><ellipse cx="34.6" cy="322" fill="#ADD1B2" rx="11" ry="11" style="stroke:#181818;stroke-width:1.0;"/><path d="M37.5688,327.6406 Q36.9906,327.9375 36.35,328.0781 Q35.7094,328.2344 35.0063,328.2344 Q32.5063,328.2344 31.1781,326.5938 Q29.8656,324.9375 29.8656,321.8125 Q29.8656,318.6875 31.1781,317.0313 Q32.5063,315.375 35.0063,315.375 Q35.7094,315.375 36.35,315.5313 Q37.0063,315.6875 37.5688,315.9844 L37.5688,318.7031 Q36.9438,318.125 36.35,317.8594 Q35.7563,317.5781 35.1313,317.5781 Q33.7875,317.5781 33.1,318.6563 Q32.4125,319.7188 32.4125,321.8125 Q32.4125,323.9063 33.1,324.9844 Q33.7875,326.0469 35.1313,326.0469 Q35.7563,326.0469 36.35,325.7813 Q36.9438,325.5 37.5688,324.9219 L37.5688,327.6406 Z " fill="#000000"/><text fill="#000000" font-family="sans-serif" font-size="14" lengthAdjust="spacing" textLength="60" x="51.4" y="326.8467">IdleState</text><line style="stroke:#181818;stroke-width:0.5;" x1="8" x2="126" y1="338" y2="338"/><line style="stroke:#181818;stroke-width:0.5;" x1="8" x2="126" y1="346" y2="346"/><ellipse cx="18" cy="359.6484" fill="#84BE84" rx="3" ry="3" style="stroke:#038048;stroke-width:1.0;"/><text fill="#000000" font-family="sans-serif" font-size="14" lengthAdjust="spacing" textLength="94" x="27" y="362.9951">handle(): void</text></g><!--MD5=[5dc9c73d23db7e99047d8a541e91c31f]
class PrintingState--><g id="elem_PrintingState"><rect codeLine="15" fill="#F1F1F1" height="64.2969" id="PrintingState" rx="2.5" ry="2.5" style="stroke:#181818;stroke-width:0.5;" width="120" x="162" y="306"/><ellipse cx="177" cy="322" fill="#ADD1B2" rx="11" ry="11" style="stroke:#181818;stroke-width:1.0;"/><path d="M179.9688,327.6406 Q179.3906,327.9375 178.75,328.0781 Q178.1094,328.2344 177.4063,328.2344 Q174.9063,328.2344 173.5781,326.5938 Q172.2656,324.9375 172.2656,321.8125 Q172.2656,318.6875 173.5781,317.0313 Q174.9063,315.375 177.4063,315.375 Q178.1094,315.375 178.75,315.5313 Q179.4063,315.6875 179.9688,315.9844 L179.9688,318.7031 Q179.3438,318.125 178.75,317.8594 Q178.1563,317.5781 177.5313,317.5781 Q176.1875,317.5781 175.5,318.6563 Q174.8125,319.7188 174.8125,321.8125 Q174.8125,323.9063 175.5,324.9844 Q176.1875,326.0469 177.5313,326.0469 Q178.1563,326.0469 178.75,325.7813 Q179.3438,325.5 179.9688,324.9219 L179.9688,327.6406 Z " fill="#000000"/><text fill="#000000" font-family="sans-serif" font-size="14" lengthAdjust="spacing" textLength="88" x="191" y="326.8467">PrintingState</text><line style="stroke:#181818;stroke-width:0.5;" x1="163" x2="281" y1="338" y2="338"/><line style="stroke:#181818;stroke-width:0.5;" x1="163" x2="281" y1="346" y2="346"/><ellipse cx="173" cy="359.6484" fill="#84BE84" rx="3" ry="3" style="stroke:#038048;stroke-width:1.0;"/><text fill="#000000" font-family="sans-serif" font-size="14" lengthAdjust="spacing" textLength="94" x="182" y="362.9951">handle(): void</text></g><!--MD5=[92cdebc29ffdc8126f4f6a19626b5237]
class ErrorState--><g id="elem_ErrorState"><rect codeLine="19" fill="#F1F1F1" height="64.2969" id="ErrorState" rx="2.5" ry="2.5" style="stroke:#181818;stroke-width:0.5;" width="120" x="317" y="306"/><ellipse cx="340.55" cy="322" fill="#ADD1B2" rx="11" ry="11" style="stroke:#181818;stroke-width:1.0;"/><path d="M343.5188,327.6406 Q342.9406,327.9375 342.3,328.0781 Q341.6594,328.2344 340.9563,328.2344 Q338.4563,328.2344 337.1281,326.5938 Q335.8156,324.9375 335.8156,321.8125 Q335.8156,318.6875 337.1281,317.0313 Q338.4563,315.375 340.9563,315.375 Q341.6594,315.375 342.3,315.5313 Q342.9563,315.6875 343.5188,315.9844 L343.5188,318.7031 Q342.8938,318.125 342.3,317.8594 Q341.7063,317.5781 341.0813,317.5781 Q339.7375,317.5781 339.05,318.6563 Q338.3625,319.7188 338.3625,321.8125 Q338.3625,323.9063 339.05,324.9844 Q339.7375,326.0469 341.0813,326.0469 Q341.7063,326.0469 342.3,325.7813 Q342.8938,325.5 343.5188,324.9219 L343.5188,327.6406 Z " fill="#000000"/><text fill="#000000" font-family="sans-serif" font-size="14" lengthAdjust="spacing" textLength="69" x="356.45" y="326.8467">ErrorState</text><line style="stroke:#181818;stroke-width:0.5;" x1="318" x2="436" y1="338" y2="338"/><line style="stroke:#181818;stroke-width:0.5;" x1="318" x2="436" y1="346" y2="346"/><ellipse cx="328" cy="359.6484" fill="#84BE84" rx="3" ry="3" style="stroke:#038048;stroke-width:1.0;"/><text fill="#000000" font-family="sans-serif" font-size="14" lengthAdjust="spacing" textLength="94" x="337" y="362.9951">handle(): void</text></g><!--MD5=[39c11b0a3a43ec78b6defbee0e89ce51]
class OutOfPaperState--><g id="elem_OutOfPaperState"><rect codeLine="23" fill="#F1F1F1" height="64.2969" id="OutOfPaperState" rx="2.5" ry="2.5" style="stroke:#181818;stroke-width:0.5;" width="148" x="472" y="306"/><ellipse cx="487" cy="322" fill="#ADD1B2" rx="11" ry="11" style="stroke:#181818;stroke-width:1.0;"/><path d="M489.9688,327.6406 Q489.3906,327.9375 488.75,328.0781 Q488.1094,328.2344 487.4063,328.2344 Q484.9063,328.2344 483.5781,326.5938 Q482.2656,324.9375 482.2656,321.8125 Q482.2656,318.6875 483.5781,317.0313 Q484.9063,315.375 487.4063,315.375 Q488.1094,315.375 488.75,315.5313 Q489.4063,315.6875 489.9688,315.9844 L489.9688,318.7031 Q489.3438,318.125 488.75,317.8594 Q488.1563,317.5781 487.5313,317.5781 Q486.1875,317.5781 485.5,318.6563 Q484.8125,319.7188 484.8125,321.8125 Q484.8125,323.9063 485.5,324.9844 Q486.1875,326.0469 487.5313,326.0469 Q488.1563,326.0469 488.75,325.7813 Q489.3438,325.5 489.9688,324.9219 L489.9688,327.6406 Z " fill="#000000"/><text fill="#000000" font-family="sans-serif" font-size="14" lengthAdjust="spacing" textLength="116" x="501" y="326.8467">OutOfPaperState</text><line style="stroke:#181818;stroke-width:0.5;" x1="473" x2="619" y1="338" y2="338"/><line style="stroke:#181818;stroke-width:0.5;" x1="473" x2="619" y1="346" y2="346"/><ellipse cx="483" cy="359.6484" fill="#84BE84" rx="3" ry="3" style="stroke:#038048;stroke-width:1.0;"/><text fill="#000000" font-family="sans-serif" font-size="14" lengthAdjust="spacing" textLength="94" x="492" y="362.9951">handle(): void</text></g><!--MD5=[d1644b7c5e6536e4ec822ae57d042cc6]
reverse link State to IdleState--><g id="link_State_IdleState"><path d="M230.83,247.87 C193.39,266.03 149.78,288.24 116.84,305.95 " fill="none" id="State-backto-IdleState" style="stroke:#181818;stroke-width:1.0;stroke-dasharray:7.0,7.0;"/><polygon fill="none" points="227.86,241.53,248.92,239.19,233.92,254.15,227.86,241.53" style="stroke:#181818;stroke-width:1.0;"/></g><!--MD5=[caf03bad5613125e6a69b089e4c298dc]
link IdleState to State--><g id="link_IdleState_State"><path codeLine="28" d="M127.37,311.97 C162.24,295.49 205.95,273.56 241.86,254.62 " fill="none" id="IdleState-to-State" style="stroke:#181818;stroke-width:1.0;stroke-dasharray:7.0,7.0;"/><polygon fill="none" points="238.9,248.27,259.84,245.04,245.48,260.62,238.9,248.27" style="stroke:#181818;stroke-width:1.0;"/></g><!--MD5=[41fcc2a7059ca303c32c6598d43c5402]
reverse link State to PrintingState--><g id="link_State_PrintingState"><path d="M263.14,261.25 C251.87,276.24 240.83,292.43 232.7,305.97 " fill="none" id="State-backto-PrintingState" style="stroke:#181818;stroke-width:1.0;stroke-dasharray:7.0,7.0;"/><polygon fill="none" points="257.97,256.49,275.8,245.04,269.01,265.11,257.97,256.49" style="stroke:#181818;stroke-width:1.0;"/></g><!--MD5=[a7de2f99a2c6acfbb4991a90aadaa031]
link PrintingState to State--><g id="link_PrintingState_State"><path codeLine="29" d="M255.85,305.97 C266.74,292.72 278.34,276.94 288.11,262.22 " fill="none" id="PrintingState-to-State" style="stroke:#181818;stroke-width:1.0;stroke-dasharray:7.0,7.0;"/><polygon fill="none" points="282.36,258.22,298.95,245.04,294.2,265.69,282.36,258.22" style="stroke:#181818;stroke-width:1.0;"/></g><!--MD5=[eb3a02055c02efcdd1f1c695c6b1e619]
reverse link State to ErrorState--><g id="link_State_ErrorState"><path d="M323.67,263.19 C331.11,277.63 340.04,293.01 348.6,305.97 " fill="none" id="State-backto-ErrorState" style="stroke:#181818;stroke-width:1.0;stroke-dasharray:7.0,7.0;"/><polygon fill="none" points="317.3,266.09,314.92,245.04,329.91,260.01,317.3,266.09" style="stroke:#181818;stroke-width:1.0;"/></g><!--MD5=[5e95369f1c009c504a50f75a7f7469ab]
link ErrorState to State--><g id="link_ErrorState_State"><path codeLine="30" d="M371.75,305.97 C365.93,292.72 357.65,276.94 348.87,262.22 " fill="none" id="ErrorState-to-State" style="stroke:#181818;stroke-width:1.0;stroke-dasharray:7.0,7.0;"/><polygon fill="none" points="342.79,265.69,338.06,245.04,354.64,258.24,342.79,265.69" style="stroke:#181818;stroke-width:1.0;"/></g><!--MD5=[92d577e9d561d159e73d42c67945f638]
reverse link State to OutOfPaperState--><g id="link_State_OutOfPaperState"><path d="M375.55,254.81 C406.57,271.49 443.41,290.46 474.97,305.97 " fill="none" id="State-backto-OutOfPaperState" style="stroke:#181818;stroke-width:1.0;stroke-dasharray:7.0,7.0;"/><polygon fill="none" points="371.79,260.74,357.56,245.04,378.48,248.44,371.79,260.74" style="stroke:#181818;stroke-width:1.0;"/></g><!--MD5=[6a93c92ce5adb94b9013bb8595f56a36]
link OutOfPaperState to State--><g id="link_OutOfPaperState_State"><path codeLine="31" d="M497.94,305.87 C466.09,288.31 423.84,266.32 387.26,248.26 " fill="none" id="OutOfPaperState-to-State" style="stroke:#181818;stroke-width:1.0;stroke-dasharray:7.0,7.0;"/><polygon fill="none" points="384.19,254.55,369.29,239.49,390.34,241.97,384.19,254.55" style="stroke:#181818;stroke-width:1.0;"/></g><!--MD5=[45f7b271079f8dd0ef6e5ff8e16b9c6c]
reverse link Context to State--><g id="link_Context_State"><path codeLine="27" d="M309,117.27 C309,139.07 309,162.75 309,180.98 " fill="none" id="Context-backto-State" style="stroke:#181818;stroke-width:1.0;"/><polygon fill="none" points="309,104,305,110,309,116,313,110,309,104" style="stroke:#181818;stroke-width:1.0;"/><text fill="#000000" font-family="sans-serif" font-size="13" lengthAdjust="spacing" textLength="32" x="310" y="147.0669">Uses</text></g><!--MD5=[4438f36ded9947b96b14116640859756]
@startuml
interface State {
    +handle(): void
}

class Context {
    -state: State
    +setState(state: State): void
    +requestPrint(): void
}

class IdleState implements State {
    +handle(): void
}

class PrintingState implements State {
    +handle(): void
}

class ErrorState implements State {
    +handle(): void
}

class OutOfPaperState implements State {
    +handle(): void
}

Context o- - State: "Uses"
IdleState ..|> State
PrintingState ..|> State
ErrorState ..|> State
OutOfPaperState ..|> State
@enduml

PlantUML version 1.2022.7(Mon Aug 22 17:01:30 UTC 2022)
(GPL source distribution)
Java Runtime: OpenJDK Runtime Environment
JVM: OpenJDK 64-Bit Server VM
Default Encoding: UTF-8
Language: en
Country: null
--></g></svg>