<?xml version="1.0" encoding="UTF-8" standalone="no"?><svg xmlns="http://www.w3.org/2000/svg" xmlns:xlink="http://www.w3.org/1999/xlink" contentStyleType="text/css" height="200px" preserveAspectRatio="none" style="width:1026px;height:200px;background:#FFFFFF;" version="1.1" viewBox="0 0 1026 200" width="1026px" zoomAndPan="magnify"><defs/><g><!--MD5=[e063ae7f3a316795a931d06bd6755eb8]
cluster DesignPatterns.Structural.Flyweight--><g id="cluster_DesignPatterns.Structural.Flyweight"><path d="M8.5,42.66 L294.5,42.66 A3.75,3.75 0 0 1 297,45.16 L304,64.9569 L1016.5,64.9569 A2.5,2.5 0 0 1 1019,67.4569 L1019,191.16 A2.5,2.5 0 0 1 1016.5,193.66 L8.5,193.66 A2.5,2.5 0 0 1 6,191.16 L6,45.16 A2.5,2.5 0 0 1 8.5,42.66 " fill="none" style="stroke:#000000;stroke-width:1.5;"/><line style="stroke:#000000;stroke-width:1.5;" x1="6" x2="304" y1="64.9569" y2="64.9569"/><text fill="#000000" font-family="sans-serif" font-size="14" font-weight="bold" lengthAdjust="spacing" textLength="285" x="10" y="57.6551">DesignPatterns.Structural.Flyweight</text></g><!--MD5=[db74ef15a1bb67ee67fed0a6e04203fa]
class DesignPatterns.Structural.Flyweight.Flyweight--><g id="elem_DesignPatterns.Structural.Flyweight.Flyweight"><rect codeLine="3" fill="#F1F1F1" height="64.2969" id="DesignPatterns.Structural.Flyweight.Flyweight" rx="2.5" ry="2.5" style="stroke:#181818;stroke-width:0.5;" width="139" x="863.5" y="105.16"/><ellipse cx="897.85" cy="121.16" fill="#B4A7E5" rx="11" ry="11" style="stroke:#181818;stroke-width:1.0;"/><path d="M893.7719,116.9256 L893.7719,114.7694 L901.1625,114.7694 L901.1625,116.9256 L898.6938,116.9256 L898.6938,125.0038 L901.1625,125.0038 L901.1625,127.16 L893.7719,127.16 L893.7719,125.0038 L896.2406,125.0038 L896.2406,116.9256 L893.7719,116.9256 Z " fill="#000000"/><text fill="#000000" font-family="sans-serif" font-size="14" font-style="italic" lengthAdjust="spacing" textLength="64" x="916.15" y="126.0067">Flyweight</text><line style="stroke:#181818;stroke-width:0.5;" x1="864.5" x2="1001.5" y1="137.16" y2="137.16"/><line style="stroke:#181818;stroke-width:0.5;" x1="864.5" x2="1001.5" y1="145.16" y2="145.16"/><ellipse cx="874.5" cy="158.8084" fill="#84BE84" rx="3" ry="3" style="stroke:#038048;stroke-width:1.0;"/><text fill="#000000" font-family="sans-serif" font-size="14" lengthAdjust="spacing" textLength="113" x="883.5" y="162.1551">operation(): void</text></g><!--MD5=[eb16ea81a2303965249fd95c2878a00a]
class DesignPatterns.Structural.Flyweight.ConcreteFlyweight--><g id="elem_DesignPatterns.Structural.Flyweight.ConcreteFlyweight"><rect codeLine="7" fill="#F1F1F1" height="80.5938" id="DesignPatterns.Structural.Flyweight.ConcreteFlyweight" rx="2.5" ry="2.5" style="stroke:#181818;stroke-width:0.5;" width="163" x="587.5" y="96.66"/><ellipse cx="603.85" cy="112.66" fill="#ADD1B2" rx="11" ry="11" style="stroke:#181818;stroke-width:1.0;"/><path d="M606.8188,118.3006 Q606.2406,118.5975 605.6,118.7381 Q604.9594,118.8944 604.2563,118.8944 Q601.7563,118.8944 600.4281,117.2538 Q599.1156,115.5975 599.1156,112.4725 Q599.1156,109.3475 600.4281,107.6913 Q601.7563,106.035 604.2563,106.035 Q604.9594,106.035 605.6,106.1913 Q606.2563,106.3475 606.8188,106.6444 L606.8188,109.3631 Q606.1938,108.785 605.6,108.5194 Q605.0063,108.2381 604.3813,108.2381 Q603.0375,108.2381 602.35,109.3163 Q601.6625,110.3788 601.6625,112.4725 Q601.6625,114.5663 602.35,115.6444 Q603.0375,116.7069 604.3813,116.7069 Q605.0063,116.7069 605.6,116.4413 Q606.1938,116.16 606.8188,115.5819 L606.8188,118.3006 Z " fill="#000000"/><text fill="#000000" font-family="sans-serif" font-size="14" lengthAdjust="spacing" textLength="128" x="618.15" y="117.5067">ConcreteFlyweight</text><line style="stroke:#181818;stroke-width:0.5;" x1="588.5" x2="749.5" y1="128.66" y2="128.66"/><rect fill="none" height="6" style="stroke:#C82930;stroke-width:1.0;" width="6" x="595.5" y="139.3084"/><text fill="#000000" font-family="sans-serif" font-size="14" lengthAdjust="spacing" textLength="137" x="607.5" y="145.6551">intrinsicState: string</text><line style="stroke:#181818;stroke-width:0.5;" x1="588.5" x2="749.5" y1="152.9569" y2="152.9569"/><ellipse cx="598.5" cy="166.6053" fill="#84BE84" rx="3" ry="3" style="stroke:#038048;stroke-width:1.0;"/><text fill="#000000" font-family="sans-serif" font-size="14" lengthAdjust="spacing" textLength="113" x="607.5" y="169.952">operation(): void</text></g><!--MD5=[6c4e931938a74737c77b1023e48b469f]
class DesignPatterns.Structural.Flyweight.UnsharedConcreteFlyweight--><g id="elem_DesignPatterns.Structural.Flyweight.UnsharedConcreteFlyweight"><rect codeLine="12" fill="#F1F1F1" height="80.5938" id="DesignPatterns.Structural.Flyweight.UnsharedConcreteFlyweight" rx="2.5" ry="2.5" style="stroke:#181818;stroke-width:0.5;" width="227" x="325.5" y="96.66"/><ellipse cx="340.5" cy="112.66" fill="#ADD1B2" rx="11" ry="11" style="stroke:#181818;stroke-width:1.0;"/><path d="M343.4688,118.3006 Q342.8906,118.5975 342.25,118.7381 Q341.6094,118.8944 340.9063,118.8944 Q338.4063,118.8944 337.0781,117.2538 Q335.7656,115.5975 335.7656,112.4725 Q335.7656,109.3475 337.0781,107.6913 Q338.4063,106.035 340.9063,106.035 Q341.6094,106.035 342.25,106.1913 Q342.9063,106.3475 343.4688,106.6444 L343.4688,109.3631 Q342.8438,108.785 342.25,108.5194 Q341.6563,108.2381 341.0313,108.2381 Q339.6875,108.2381 339,109.3163 Q338.3125,110.3788 338.3125,112.4725 Q338.3125,114.5663 339,115.6444 Q339.6875,116.7069 341.0313,116.7069 Q341.6563,116.7069 342.25,116.4413 Q342.8438,116.16 343.4688,115.5819 L343.4688,118.3006 Z " fill="#000000"/><text fill="#000000" font-family="sans-serif" font-size="14" lengthAdjust="spacing" textLength="195" x="354.5" y="117.5067">UnsharedConcreteFlyweight</text><line style="stroke:#181818;stroke-width:0.5;" x1="326.5" x2="551.5" y1="128.66" y2="128.66"/><rect fill="none" height="6" style="stroke:#C82930;stroke-width:1.0;" width="6" x="333.5" y="139.3084"/><text fill="#000000" font-family="sans-serif" font-size="14" lengthAdjust="spacing" textLength="98" x="345.5" y="145.6551">allState: string</text><line style="stroke:#181818;stroke-width:0.5;" x1="326.5" x2="551.5" y1="152.9569" y2="152.9569"/><ellipse cx="336.5" cy="166.6053" fill="#84BE84" rx="3" ry="3" style="stroke:#038048;stroke-width:1.0;"/><text fill="#000000" font-family="sans-serif" font-size="14" lengthAdjust="spacing" textLength="113" x="345.5" y="169.952">operation(): void</text></g><!--MD5=[7388fb4152621f918134427b3dd2a490]
class DesignPatterns.Structural.Flyweight.FlyweightFactory--><g id="elem_DesignPatterns.Structural.Flyweight.FlyweightFactory"><rect codeLine="17" fill="#F1F1F1" height="80.5938" id="DesignPatterns.Structural.Flyweight.FlyweightFactory" rx="2.5" ry="2.5" style="stroke:#181818;stroke-width:0.5;" width="268" x="22" y="96.66"/><ellipse cx="94.75" cy="112.66" fill="#ADD1B2" rx="11" ry="11" style="stroke:#181818;stroke-width:1.0;"/><path d="M97.7188,118.3006 Q97.1406,118.5975 96.5,118.7381 Q95.8594,118.8944 95.1563,118.8944 Q92.6563,118.8944 91.3281,117.2538 Q90.0156,115.5975 90.0156,112.4725 Q90.0156,109.3475 91.3281,107.6913 Q92.6563,106.035 95.1563,106.035 Q95.8594,106.035 96.5,106.1913 Q97.1563,106.3475 97.7188,106.6444 L97.7188,109.3631 Q97.0938,108.785 96.5,108.5194 Q95.9063,108.2381 95.2813,108.2381 Q93.9375,108.2381 93.25,109.3163 Q92.5625,110.3788 92.5625,112.4725 Q92.5625,114.5663 93.25,115.6444 Q93.9375,116.7069 95.2813,116.7069 Q95.9063,116.7069 96.5,116.4413 Q97.0938,116.16 97.7188,115.5819 L97.7188,118.3006 Z " fill="#000000"/><text fill="#000000" font-family="sans-serif" font-size="14" lengthAdjust="spacing" textLength="114" x="115.25" y="117.5067">FlyweightFactory</text><line style="stroke:#181818;stroke-width:0.5;" x1="23" x2="289" y1="128.66" y2="128.66"/><rect fill="none" height="6" style="stroke:#C82930;stroke-width:1.0;" width="6" x="30" y="139.3084"/><text fill="#000000" font-family="sans-serif" font-size="14" lengthAdjust="spacing" textLength="195" x="42" y="145.6551">flyweights: array of Flyweight</text><line style="stroke:#181818;stroke-width:0.5;" x1="23" x2="289" y1="152.9569" y2="152.9569"/><ellipse cx="33" cy="166.6053" fill="#84BE84" rx="3" ry="3" style="stroke:#038048;stroke-width:1.0;"/><text fill="#000000" font-family="sans-serif" font-size="14" lengthAdjust="spacing" textLength="242" x="42" y="169.952">getFlyweight(key: string): Flyweight</text></g><!--MD5=[42271bd1b97269a8539830bcf85f3933]
link DesignPatterns.Structural.Flyweight.ConcreteFlyweight to DesignPatterns.Structural.Flyweight.Flyweight--><g id="link_DesignPatterns.Structural.Flyweight.ConcreteFlyweight_DesignPatterns.Structural.Flyweight.Flyweight"><path codeLine="24" d="M750.72,137.16 C784.93,137.16 824.44,137.16 857.91,137.16 " fill="none" id="DesignPatterns.Structural.Flyweight.ConcreteFlyweight-to-DesignPatterns.Structural.Flyweight.Flyweight" style="stroke:#181818;stroke-width:1.0;"/><polygon fill="#181818" points="863.23,137.16,854.23,133.16,858.23,137.16,854.23,141.16,863.23,137.16" style="stroke:#181818;stroke-width:1.0;"/><text fill="#000000" font-family="sans-serif" font-size="13" lengthAdjust="spacing" textLength="76" x="769" y="130.2269">implements</text></g><!--MD5=[c9080cb3d9e44752711bc9d77e236b6d]
link DesignPatterns.Structural.Flyweight.UnsharedConcreteFlyweight to DesignPatterns.Structural.Flyweight.Flyweight--><g id="link_DesignPatterns.Structural.Flyweight.UnsharedConcreteFlyweight_DesignPatterns.Structural.Flyweight.Flyweight"><path codeLine="25" d="M476.97,96.66 C501.13,73.95 534.47,47.81 570,35.66 C653.26,7.18 683.32,11.7 768,35.66 C813.53,48.54 858.85,77.92 890.44,101.77 " fill="none" id="DesignPatterns.Structural.Flyweight.UnsharedConcreteFlyweight-to-DesignPatterns.Structural.Flyweight.Flyweight" style="stroke:#181818;stroke-width:1.0;"/><polygon fill="#181818" points="894.61,104.95,889.879,96.3118,890.6342,101.9181,885.0279,102.6732,894.61,104.95" style="stroke:#181818;stroke-width:1.0;"/><text fill="#000000" font-family="sans-serif" font-size="13" lengthAdjust="spacing" textLength="76" x="670" y="22.7269">implements</text></g><!--MD5=[da1aab6bcbddd128fd313e1d3efb0da3]
link DesignPatterns.Structural.Flyweight.FlyweightFactory to DesignPatterns.Structural.Flyweight.Flyweight--><g id="link_DesignPatterns.Structural.Flyweight.FlyweightFactory_DesignPatterns.Structural.Flyweight.Flyweight"><path codeLine="26" d="M210.6687,89.1881 C210.6687,89.1881 273.02,46.27 308,35.66 C405.82,6 669.64,7.83 768,35.66 C810.55,47.7 852.93,74.15 884.07,97.03 " fill="none" id="DesignPatterns.Structural.Flyweight.FlyweightFactory-DesignPatterns.Structural.Flyweight.Flyweight" style="stroke:#181818;stroke-width:1.0;"/><polygon fill="#181818" points="894.61,104.95,889.8232,96.3426,890.6146,101.9438,885.0134,102.7352,894.61,104.95" style="stroke:#181818;stroke-width:1.0;"/><line style="stroke:#181818;stroke-width:1.0;" x1="890.6146" x2="884.215" y1="101.9438" y2="97.135"/><polygon fill="none" points="201.2,96.56,208.3916,96.0303,210.6687,89.1881,203.4771,89.7178,201.2,96.56" style="stroke:#181818;stroke-width:1.0;"/><text fill="#000000" font-family="sans-serif" font-size="13" lengthAdjust="spacing" textLength="62" x="387" y="22.7269">flyweights</text></g><!--MD5=[ed57e1d11862bb4692684be0f34ac649]
@startuml
namespace DesignPatterns.Structural.Flyweight {

    interface Flyweight {
        +operation(): void
    }

    class ConcreteFlyweight {
        -intrinsicState: string
        +operation(): void
    }

    class UnsharedConcreteFlyweight {
        -allState: string
        +operation(): void
    }

    class FlyweightFactory {
        -flyweights: array of Flyweight
        +getFlyweight(key: string): Flyweight
    }

}

DesignPatterns.Structural.Flyweight.ConcreteFlyweight -right-> DesignPatterns.Structural.Flyweight.Flyweight: implements
DesignPatterns.Structural.Flyweight.UnsharedConcreteFlyweight -right-> DesignPatterns.Structural.Flyweight.Flyweight: implements
DesignPatterns.Structural.Flyweight.FlyweightFactory o-right-> DesignPatterns.Structural.Flyweight.Flyweight: flyweights
@enduml

PlantUML version 1.2022.7(Mon Aug 22 17:01:30 UTC 2022)
(GPL source distribution)
Java Runtime: OpenJDK Runtime Environment
JVM: OpenJDK 64-Bit Server VM
Default Encoding: UTF-8
Language: en
Country: null
--></g></svg>