<?xml version="1.0" encoding="UTF-8" standalone="no"?><svg xmlns="http://www.w3.org/2000/svg" xmlns:xlink="http://www.w3.org/1999/xlink" contentStyleType="text/css" height="444px" preserveAspectRatio="none" style="width:880px;height:444px;background:#FFFFFF;" version="1.1" viewBox="0 0 880 444" width="880px" zoomAndPan="magnify"><defs/><g><!--MD5=[d753c409d698dbe2eb3ba608c24e7428]
cluster DesignPatterns.Creational.AbstractFactory--><g id="cluster_DesignPatterns.Creational.AbstractFactory"><path d="M8.5,6 L346.5,6 A3.75,3.75 0 0 1 349,8.5 L356,28.2969 L870.5,28.2969 A2.5,2.5 0 0 1 873,30.7969 L873,434.5 A2.5,2.5 0 0 1 870.5,437 L8.5,437 A2.5,2.5 0 0 1 6,434.5 L6,8.5 A2.5,2.5 0 0 1 8.5,6 " fill="none" style="stroke:#000000;stroke-width:1.5;"/><line style="stroke:#000000;stroke-width:1.5;" x1="6" x2="356" y1="28.2969" y2="28.2969"/><text fill="#000000" font-family="sans-serif" font-size="14" font-weight="bold" lengthAdjust="spacing" textLength="337" x="10" y="20.9951">DesignPatterns.Creational.AbstractFactory</text></g><!--MD5=[75788cf4aaeb02998f5a2ab975955b69]
class DesignPatterns.Creational.AbstractFactory.AbstractFactory--><g id="elem_DesignPatterns.Creational.AbstractFactory.AbstractFactory"><rect codeLine="3" fill="#F1F1F1" height="80.5938" id="DesignPatterns.Creational.AbstractFactory.AbstractFactory" rx="2.5" ry="2.5" style="stroke:#181818;stroke-width:0.5;" width="217" x="322.5" y="41"/><ellipse cx="373.25" cy="57" fill="#A9DCDF" rx="11" ry="11" style="stroke:#181818;stroke-width:1.0;"/><path d="M373.3594,52.3438 L372.2031,57.4219 L374.5313,57.4219 L373.3594,52.3438 Z M371.875,50.1094 L374.8594,50.1094 L378.2188,62.5 L375.7656,62.5 L375,59.4375 L371.7188,59.4375 L370.9688,62.5 L368.5313,62.5 L371.875,50.1094 Z " fill="#000000"/><text fill="#000000" font-family="sans-serif" font-size="14" font-style="italic" lengthAdjust="spacing" textLength="107" x="393.75" y="61.8467">AbstractFactory</text><line style="stroke:#181818;stroke-width:0.5;" x1="323.5" x2="538.5" y1="73" y2="73"/><line style="stroke:#181818;stroke-width:0.5;" x1="323.5" x2="538.5" y1="81" y2="81"/><ellipse cx="333.5" cy="94.6484" fill="#84BE84" rx="3" ry="3" style="stroke:#038048;stroke-width:1.0;"/><text fill="#000000" font-family="sans-serif" font-size="14" lengthAdjust="spacing" textLength="189" x="342.5" y="97.9951">createProductA(): ProductA</text><ellipse cx="333.5" cy="110.9453" fill="#84BE84" rx="3" ry="3" style="stroke:#038048;stroke-width:1.0;"/><text fill="#000000" font-family="sans-serif" font-size="14" lengthAdjust="spacing" textLength="191" x="342.5" y="114.292">createProductB(): ProductB</text></g><!--MD5=[bfa8a527845ecceaf9df73261f52b2d9]
class DesignPatterns.Creational.AbstractFactory.ProductA--><g id="elem_DesignPatterns.Creational.AbstractFactory.ProductA"><rect codeLine="8" fill="#F1F1F1" height="64.2969" id="DesignPatterns.Creational.AbstractFactory.ProductA" rx="2.5" ry="2.5" style="stroke:#181818;stroke-width:0.5;" width="116" x="451" y="207.5"/><ellipse cx="475.45" cy="223.5" fill="#B4A7E5" rx="11" ry="11" style="stroke:#181818;stroke-width:1.0;"/><path d="M471.3719,219.2656 L471.3719,217.1094 L478.7625,217.1094 L478.7625,219.2656 L476.2938,219.2656 L476.2938,227.3438 L478.7625,227.3438 L478.7625,229.5 L471.3719,229.5 L471.3719,227.3438 L473.8406,227.3438 L473.8406,219.2656 L471.3719,219.2656 Z " fill="#000000"/><text fill="#000000" font-family="sans-serif" font-size="14" font-style="italic" lengthAdjust="spacing" textLength="63" x="491.55" y="228.3467">ProductA</text><line style="stroke:#181818;stroke-width:0.5;" x1="452" x2="566" y1="239.5" y2="239.5"/><line style="stroke:#181818;stroke-width:0.5;" x1="452" x2="566" y1="247.5" y2="247.5"/><ellipse cx="462" cy="261.1484" fill="#84BE84" rx="3" ry="3" style="stroke:#038048;stroke-width:1.0;"/><text fill="#000000" font-family="sans-serif" font-size="14" lengthAdjust="spacing" textLength="90" x="471" y="264.4951">__construct()</text></g><!--MD5=[d9be01145797dc91ee5ee9ccd42f9e06]
class DesignPatterns.Creational.AbstractFactory.ProductB--><g id="elem_DesignPatterns.Creational.AbstractFactory.ProductB"><rect codeLine="12" fill="#F1F1F1" height="64.2969" id="DesignPatterns.Creational.AbstractFactory.ProductB" rx="2.5" ry="2.5" style="stroke:#181818;stroke-width:0.5;" width="116" x="297" y="207.5"/><ellipse cx="321" cy="223.5" fill="#B4A7E5" rx="11" ry="11" style="stroke:#181818;stroke-width:1.0;"/><path d="M316.9219,219.2656 L316.9219,217.1094 L324.3125,217.1094 L324.3125,219.2656 L321.8438,219.2656 L321.8438,227.3438 L324.3125,227.3438 L324.3125,229.5 L316.9219,229.5 L316.9219,227.3438 L319.3906,227.3438 L319.3906,219.2656 L316.9219,219.2656 Z " fill="#000000"/><text fill="#000000" font-family="sans-serif" font-size="14" font-style="italic" lengthAdjust="spacing" textLength="64" x="337" y="228.3467">ProductB</text><line style="stroke:#181818;stroke-width:0.5;" x1="298" x2="412" y1="239.5" y2="239.5"/><line style="stroke:#181818;stroke-width:0.5;" x1="298" x2="412" y1="247.5" y2="247.5"/><ellipse cx="308" cy="261.1484" fill="#84BE84" rx="3" ry="3" style="stroke:#038048;stroke-width:1.0;"/><text fill="#000000" font-family="sans-serif" font-size="14" lengthAdjust="spacing" textLength="90" x="317" y="264.4951">__construct()</text></g><!--MD5=[5d048af43da23656c93fd3b913e745a9]
class DesignPatterns.Creational.AbstractFactory.ConcreteFactory1--><g id="elem_DesignPatterns.Creational.AbstractFactory.ConcreteFactory1"><rect codeLine="16" fill="#F1F1F1" height="80.5938" id="DesignPatterns.Creational.AbstractFactory.ConcreteFactory1" rx="2.5" ry="2.5" style="stroke:#181818;stroke-width:0.5;" width="217" x="40.5" y="199"/><ellipse cx="83.4" cy="215" fill="#ADD1B2" rx="11" ry="11" style="stroke:#181818;stroke-width:1.0;"/><path d="M86.3688,220.6406 Q85.7906,220.9375 85.15,221.0781 Q84.5094,221.2344 83.8063,221.2344 Q81.3063,221.2344 79.9781,219.5938 Q78.6656,217.9375 78.6656,214.8125 Q78.6656,211.6875 79.9781,210.0313 Q81.3063,208.375 83.8063,208.375 Q84.5094,208.375 85.15,208.5313 Q85.8063,208.6875 86.3688,208.9844 L86.3688,211.7031 Q85.7438,211.125 85.15,210.8594 Q84.5563,210.5781 83.9313,210.5781 Q82.5875,210.5781 81.9,211.6563 Q81.2125,212.7188 81.2125,214.8125 Q81.2125,216.9063 81.9,217.9844 Q82.5875,219.0469 83.9313,219.0469 Q84.5563,219.0469 85.15,218.7813 Q85.7438,218.5 86.3688,217.9219 L86.3688,220.6406 Z " fill="#000000"/><text fill="#000000" font-family="sans-serif" font-size="14" lengthAdjust="spacing" textLength="123" x="103.6" y="219.8467">ConcreteFactory1</text><line style="stroke:#181818;stroke-width:0.5;" x1="41.5" x2="256.5" y1="231" y2="231"/><line style="stroke:#181818;stroke-width:0.5;" x1="41.5" x2="256.5" y1="239" y2="239"/><ellipse cx="51.5" cy="252.6484" fill="#84BE84" rx="3" ry="3" style="stroke:#038048;stroke-width:1.0;"/><text fill="#000000" font-family="sans-serif" font-size="14" lengthAdjust="spacing" textLength="189" x="60.5" y="255.9951">createProductA(): ProductA</text><ellipse cx="51.5" cy="268.9453" fill="#84BE84" rx="3" ry="3" style="stroke:#038048;stroke-width:1.0;"/><text fill="#000000" font-family="sans-serif" font-size="14" lengthAdjust="spacing" textLength="191" x="60.5" y="272.292">createProductB(): ProductB</text></g><!--MD5=[5f61b8133525c7e5116e8432dd2d0e1c]
class DesignPatterns.Creational.AbstractFactory.ConcreteFactory2--><g id="elem_DesignPatterns.Creational.AbstractFactory.ConcreteFactory2"><rect codeLine="21" fill="#F1F1F1" height="80.5938" id="DesignPatterns.Creational.AbstractFactory.ConcreteFactory2" rx="2.5" ry="2.5" style="stroke:#181818;stroke-width:0.5;" width="217" x="604.5" y="199"/><ellipse cx="647.4" cy="215" fill="#ADD1B2" rx="11" ry="11" style="stroke:#181818;stroke-width:1.0;"/><path d="M650.3688,220.6406 Q649.7906,220.9375 649.15,221.0781 Q648.5094,221.2344 647.8063,221.2344 Q645.3063,221.2344 643.9781,219.5938 Q642.6656,217.9375 642.6656,214.8125 Q642.6656,211.6875 643.9781,210.0313 Q645.3063,208.375 647.8063,208.375 Q648.5094,208.375 649.15,208.5313 Q649.8063,208.6875 650.3688,208.9844 L650.3688,211.7031 Q649.7438,211.125 649.15,210.8594 Q648.5563,210.5781 647.9313,210.5781 Q646.5875,210.5781 645.9,211.6563 Q645.2125,212.7188 645.2125,214.8125 Q645.2125,216.9063 645.9,217.9844 Q646.5875,219.0469 647.9313,219.0469 Q648.5563,219.0469 649.15,218.7813 Q649.7438,218.5 650.3688,217.9219 L650.3688,220.6406 Z " fill="#000000"/><text fill="#000000" font-family="sans-serif" font-size="14" lengthAdjust="spacing" textLength="123" x="667.6" y="219.8467">ConcreteFactory2</text><line style="stroke:#181818;stroke-width:0.5;" x1="605.5" x2="820.5" y1="231" y2="231"/><line style="stroke:#181818;stroke-width:0.5;" x1="605.5" x2="820.5" y1="239" y2="239"/><ellipse cx="615.5" cy="252.6484" fill="#84BE84" rx="3" ry="3" style="stroke:#038048;stroke-width:1.0;"/><text fill="#000000" font-family="sans-serif" font-size="14" lengthAdjust="spacing" textLength="189" x="624.5" y="255.9951">createProductA(): ProductA</text><ellipse cx="615.5" cy="268.9453" fill="#84BE84" rx="3" ry="3" style="stroke:#038048;stroke-width:1.0;"/><text fill="#000000" font-family="sans-serif" font-size="14" lengthAdjust="spacing" textLength="191" x="624.5" y="272.292">createProductB(): ProductB</text></g><!--MD5=[150e7e11ead0eca0fadfdaa150d96900]
class DesignPatterns.Creational.AbstractFactory.ProductA1--><g id="elem_DesignPatterns.Creational.AbstractFactory.ProductA1"><rect codeLine="26" fill="#F1F1F1" height="64.2969" id="DesignPatterns.Creational.AbstractFactory.ProductA1" rx="2.5" ry="2.5" style="stroke:#181818;stroke-width:0.5;" width="116" x="288" y="357"/><ellipse cx="308.4" cy="373" fill="#ADD1B2" rx="11" ry="11" style="stroke:#181818;stroke-width:1.0;"/><path d="M311.3688,378.6406 Q310.7906,378.9375 310.15,379.0781 Q309.5094,379.2344 308.8063,379.2344 Q306.3063,379.2344 304.9781,377.5938 Q303.6656,375.9375 303.6656,372.8125 Q303.6656,369.6875 304.9781,368.0313 Q306.3063,366.375 308.8063,366.375 Q309.5094,366.375 310.15,366.5313 Q310.8063,366.6875 311.3688,366.9844 L311.3688,369.7031 Q310.7438,369.125 310.15,368.8594 Q309.5563,368.5781 308.9313,368.5781 Q307.5875,368.5781 306.9,369.6563 Q306.2125,370.7188 306.2125,372.8125 Q306.2125,374.9063 306.9,375.9844 Q307.5875,377.0469 308.9313,377.0469 Q309.5563,377.0469 310.15,376.7813 Q310.7438,376.5 311.3688,375.9219 L311.3688,378.6406 Z " fill="#000000"/><text fill="#000000" font-family="sans-serif" font-size="14" lengthAdjust="spacing" textLength="72" x="323.6" y="377.8467">ProductA1</text><line style="stroke:#181818;stroke-width:0.5;" x1="289" x2="403" y1="389" y2="389"/><line style="stroke:#181818;stroke-width:0.5;" x1="289" x2="403" y1="397" y2="397"/><ellipse cx="299" cy="410.6484" fill="#84BE84" rx="3" ry="3" style="stroke:#038048;stroke-width:1.0;"/><text fill="#000000" font-family="sans-serif" font-size="14" lengthAdjust="spacing" textLength="90" x="308" y="413.9951">__construct()</text></g><!--MD5=[93f7c35403ed53a9dbfa6e00621e2f2d]
class DesignPatterns.Creational.AbstractFactory.ProductA2--><g id="elem_DesignPatterns.Creational.AbstractFactory.ProductA2"><rect codeLine="30" fill="#F1F1F1" height="64.2969" id="DesignPatterns.Creational.AbstractFactory.ProductA2" rx="2.5" ry="2.5" style="stroke:#181818;stroke-width:0.5;" width="116" x="613" y="357"/><ellipse cx="633.4" cy="373" fill="#ADD1B2" rx="11" ry="11" style="stroke:#181818;stroke-width:1.0;"/><path d="M636.3688,378.6406 Q635.7906,378.9375 635.15,379.0781 Q634.5094,379.2344 633.8063,379.2344 Q631.3063,379.2344 629.9781,377.5938 Q628.6656,375.9375 628.6656,372.8125 Q628.6656,369.6875 629.9781,368.0313 Q631.3063,366.375 633.8063,366.375 Q634.5094,366.375 635.15,366.5313 Q635.8063,366.6875 636.3688,366.9844 L636.3688,369.7031 Q635.7438,369.125 635.15,368.8594 Q634.5563,368.5781 633.9313,368.5781 Q632.5875,368.5781 631.9,369.6563 Q631.2125,370.7188 631.2125,372.8125 Q631.2125,374.9063 631.9,375.9844 Q632.5875,377.0469 633.9313,377.0469 Q634.5563,377.0469 635.15,376.7813 Q635.7438,376.5 636.3688,375.9219 L636.3688,378.6406 Z " fill="#000000"/><text fill="#000000" font-family="sans-serif" font-size="14" lengthAdjust="spacing" textLength="72" x="648.6" y="377.8467">ProductA2</text><line style="stroke:#181818;stroke-width:0.5;" x1="614" x2="728" y1="389" y2="389"/><line style="stroke:#181818;stroke-width:0.5;" x1="614" x2="728" y1="397" y2="397"/><ellipse cx="624" cy="410.6484" fill="#84BE84" rx="3" ry="3" style="stroke:#038048;stroke-width:1.0;"/><text fill="#000000" font-family="sans-serif" font-size="14" lengthAdjust="spacing" textLength="90" x="633" y="413.9951">__construct()</text></g><!--MD5=[41ede623567b0b62396201636b185de0]
class DesignPatterns.Creational.AbstractFactory.ProductB1--><g id="elem_DesignPatterns.Creational.AbstractFactory.ProductB1"><rect codeLine="34" fill="#F1F1F1" height="64.2969" id="DesignPatterns.Creational.AbstractFactory.ProductB1" rx="2.5" ry="2.5" style="stroke:#181818;stroke-width:0.5;" width="116" x="106" y="357"/><ellipse cx="125.95" cy="373" fill="#ADD1B2" rx="11" ry="11" style="stroke:#181818;stroke-width:1.0;"/><path d="M128.9188,378.6406 Q128.3406,378.9375 127.7,379.0781 Q127.0594,379.2344 126.3563,379.2344 Q123.8563,379.2344 122.5281,377.5938 Q121.2156,375.9375 121.2156,372.8125 Q121.2156,369.6875 122.5281,368.0313 Q123.8563,366.375 126.3563,366.375 Q127.0594,366.375 127.7,366.5313 Q128.3563,366.6875 128.9188,366.9844 L128.9188,369.7031 Q128.2938,369.125 127.7,368.8594 Q127.1063,368.5781 126.4813,368.5781 Q125.1375,368.5781 124.45,369.6563 Q123.7625,370.7188 123.7625,372.8125 Q123.7625,374.9063 124.45,375.9844 Q125.1375,377.0469 126.4813,377.0469 Q127.1063,377.0469 127.7,376.7813 Q128.2938,376.5 128.9188,375.9219 L128.9188,378.6406 Z " fill="#000000"/><text fill="#000000" font-family="sans-serif" font-size="14" lengthAdjust="spacing" textLength="73" x="141.05" y="377.8467">ProductB1</text><line style="stroke:#181818;stroke-width:0.5;" x1="107" x2="221" y1="389" y2="389"/><line style="stroke:#181818;stroke-width:0.5;" x1="107" x2="221" y1="397" y2="397"/><ellipse cx="117" cy="410.6484" fill="#84BE84" rx="3" ry="3" style="stroke:#038048;stroke-width:1.0;"/><text fill="#000000" font-family="sans-serif" font-size="14" lengthAdjust="spacing" textLength="90" x="126" y="413.9951">__construct()</text></g><!--MD5=[74cc058b5283af0622af66d8a8c12047]
class DesignPatterns.Creational.AbstractFactory.ProductB2--><g id="elem_DesignPatterns.Creational.AbstractFactory.ProductB2"><rect codeLine="38" fill="#F1F1F1" height="64.2969" id="DesignPatterns.Creational.AbstractFactory.ProductB2" rx="2.5" ry="2.5" style="stroke:#181818;stroke-width:0.5;" width="116" x="454" y="357"/><ellipse cx="473.95" cy="373" fill="#ADD1B2" rx="11" ry="11" style="stroke:#181818;stroke-width:1.0;"/><path d="M476.9188,378.6406 Q476.3406,378.9375 475.7,379.0781 Q475.0594,379.2344 474.3563,379.2344 Q471.8563,379.2344 470.5281,377.5938 Q469.2156,375.9375 469.2156,372.8125 Q469.2156,369.6875 470.5281,368.0313 Q471.8563,366.375 474.3563,366.375 Q475.0594,366.375 475.7,366.5313 Q476.3563,366.6875 476.9188,366.9844 L476.9188,369.7031 Q476.2938,369.125 475.7,368.8594 Q475.1063,368.5781 474.4813,368.5781 Q473.1375,368.5781 472.45,369.6563 Q471.7625,370.7188 471.7625,372.8125 Q471.7625,374.9063 472.45,375.9844 Q473.1375,377.0469 474.4813,377.0469 Q475.1063,377.0469 475.7,376.7813 Q476.2938,376.5 476.9188,375.9219 L476.9188,378.6406 Z " fill="#000000"/><text fill="#000000" font-family="sans-serif" font-size="14" lengthAdjust="spacing" textLength="73" x="489.05" y="377.8467">ProductB2</text><line style="stroke:#181818;stroke-width:0.5;" x1="455" x2="569" y1="389" y2="389"/><line style="stroke:#181818;stroke-width:0.5;" x1="455" x2="569" y1="397" y2="397"/><ellipse cx="465" cy="410.6484" fill="#84BE84" rx="3" ry="3" style="stroke:#038048;stroke-width:1.0;"/><text fill="#000000" font-family="sans-serif" font-size="14" lengthAdjust="spacing" textLength="90" x="474" y="413.9951">__construct()</text></g><!--MD5=[d5d1f800e49a46f9416772b06456dbe7]
reverse link DesignPatterns.Creational.AbstractFactory.AbstractFactory to DesignPatterns.Creational.AbstractFactory.ConcreteFactory1--><g id="link_DesignPatterns.Creational.AbstractFactory.AbstractFactory_DesignPatterns.Creational.AbstractFactory.ConcreteFactory1"><path codeLine="42" d="M341.96,131.75 C302.78,153.43 257.37,178.55 220.45,198.98 " fill="none" id="DesignPatterns.Creational.AbstractFactory.AbstractFactory-backto-DesignPatterns.Creational.AbstractFactory.ConcreteFactory1" style="stroke:#181818;stroke-width:1.0;"/><polygon fill="none" points="338.59,125.62,359.47,122.07,345.36,137.87,338.59,125.62" style="stroke:#181818;stroke-width:1.0;"/><text fill="#000000" font-family="sans-serif" font-size="13" lengthAdjust="spacing" textLength="71" x="299" y="165.0669">Inheritance</text></g><!--MD5=[81652e3e85c82d500bc60527f97dabaa]
reverse link DesignPatterns.Creational.AbstractFactory.AbstractFactory to DesignPatterns.Creational.AbstractFactory.ConcreteFactory2--><g id="link_DesignPatterns.Creational.AbstractFactory.AbstractFactory_DesignPatterns.Creational.AbstractFactory.ConcreteFactory2"><path codeLine="43" d="M520.04,131.75 C559.22,153.43 604.63,178.55 641.55,198.98 " fill="none" id="DesignPatterns.Creational.AbstractFactory.AbstractFactory-backto-DesignPatterns.Creational.AbstractFactory.ConcreteFactory2" style="stroke:#181818;stroke-width:1.0;"/><polygon fill="none" points="516.64,137.87,502.53,122.07,523.41,125.62,516.64,137.87" style="stroke:#181818;stroke-width:1.0;"/><text fill="#000000" font-family="sans-serif" font-size="13" lengthAdjust="spacing" textLength="71" x="581" y="165.0669">Inheritance</text></g><!--MD5=[a0a17ffbbbaadaf605be20134fa8cf9f]
reverse link DesignPatterns.Creational.AbstractFactory.ProductA to DesignPatterns.Creational.AbstractFactory.ProductA1--><g id="link_DesignPatterns.Creational.AbstractFactory.ProductA_DesignPatterns.Creational.AbstractFactory.ProductA1"><path codeLine="45" d="M474.63,287.53 C463.69,301.02 451.02,315.24 438,327 C426.19,337.66 412.37,347.82 399.08,356.68 " fill="none" id="DesignPatterns.Creational.AbstractFactory.ProductA-backto-DesignPatterns.Creational.AbstractFactory.ProductA1" style="stroke:#181818;stroke-width:1.0;stroke-dasharray:7.0,7.0;"/><polygon fill="none" points="469.2,283.11,487.03,271.66,480.23,291.73,469.2,283.11" style="stroke:#181818;stroke-width:1.0;"/><text fill="#000000" font-family="sans-serif" font-size="13" lengthAdjust="spacing" textLength="76" x="454" y="323.0669">Implements</text></g><!--MD5=[0da599c2cea6ca38aefaa7dd0669b992]
reverse link DesignPatterns.Creational.AbstractFactory.ProductA to DesignPatterns.Creational.AbstractFactory.ProductA2--><g id="link_DesignPatterns.Creational.AbstractFactory.ProductA_DesignPatterns.Creational.AbstractFactory.ProductA2"><path codeLine="46" d="M550.51,286.29 C563.41,299.81 577.94,314.37 592,327 C603.34,337.19 616.22,347.58 628.24,356.83 " fill="none" id="DesignPatterns.Creational.AbstractFactory.ProductA-backto-DesignPatterns.Creational.AbstractFactory.ProductA2" style="stroke:#181818;stroke-width:1.0;stroke-dasharray:7.0,7.0;"/><polygon fill="none" points="545.32,290.99,536.75,271.61,555.54,281.42,545.32,290.99" style="stroke:#181818;stroke-width:1.0;"/><text fill="#000000" font-family="sans-serif" font-size="13" lengthAdjust="spacing" textLength="76" x="593" y="323.0669">Implements</text></g><!--MD5=[259838ed0b253fac5c26acd0ac0d1029]
reverse link DesignPatterns.Creational.AbstractFactory.ProductB to DesignPatterns.Creational.AbstractFactory.ProductB1--><g id="link_DesignPatterns.Creational.AbstractFactory.ProductB_DesignPatterns.Creational.AbstractFactory.ProductB1"><path codeLine="48" d="M296.36,283.9 C284.91,292.49 273.04,301.48 262,310 C242.2,325.27 220.41,342.56 202.42,356.98 " fill="none" id="DesignPatterns.Creational.AbstractFactory.ProductB-backto-DesignPatterns.Creational.AbstractFactory.ProductB1" style="stroke:#181818;stroke-width:1.0;stroke-dasharray:7.0,7.0;"/><polygon fill="none" points="292.45,278.08,312.67,271.71,300.84,289.29,292.45,278.08" style="stroke:#181818;stroke-width:1.0;"/><text fill="#000000" font-family="sans-serif" font-size="13" lengthAdjust="spacing" textLength="76" x="263" y="323.0669">Implements</text></g><!--MD5=[c67608281d686a3cf31d1ab450134c75]
reverse link DesignPatterns.Creational.AbstractFactory.ProductB to DesignPatterns.Creational.AbstractFactory.ProductB2--><g id="link_DesignPatterns.Creational.AbstractFactory.ProductB_DesignPatterns.Creational.AbstractFactory.ProductB2"><path codeLine="49" d="M346.05,292.02 C346.38,304.35 349,316.87 356,327 C359.06,331.43 410.72,351.12 453.77,366.95 " fill="none" id="DesignPatterns.Creational.AbstractFactory.ProductB-backto-DesignPatterns.Creational.AbstractFactory.ProductB2" style="stroke:#181818;stroke-width:1.0;stroke-dasharray:7.0,7.0;"/><polygon fill="none" points="339.08,291.42,347.3,271.89,353.05,292.28,339.08,291.42" style="stroke:#181818;stroke-width:1.0;"/><text fill="#000000" font-family="sans-serif" font-size="13" lengthAdjust="spacing" textLength="76" x="357" y="323.0669">Implements</text></g><!--MD5=[db9ee25b89beef0ae2c487cf1844a22e]
reverse link DesignPatterns.Creational.AbstractFactory.ConcreteFactory1 to DesignPatterns.Creational.AbstractFactory.ProductA1--><g id="link_DesignPatterns.Creational.AbstractFactory.ConcreteFactory1_DesignPatterns.Creational.AbstractFactory.ProductA1"><path codeLine="51" d="M159.52,292.63 C164.1,305.13 170.65,317.57 180,327 C195.62,342.75 246.5,360.15 287.85,372.33 " fill="none" id="DesignPatterns.Creational.AbstractFactory.ConcreteFactory1-backto-DesignPatterns.Creational.AbstractFactory.ProductA1" style="stroke:#181818;stroke-width:1.0;"/><polygon fill="#181818" points="155.57,280.22,153.5785,287.1507,159.2101,291.6546,161.2016,284.7239,155.57,280.22" style="stroke:#181818;stroke-width:1.0;"/><text fill="#000000" font-family="sans-serif" font-size="13" lengthAdjust="spacing" textLength="50" x="181" y="323.0669">Creates</text></g><!--MD5=[468bac73a7570476ce90bf5191a5b964]
reverse link DesignPatterns.Creational.AbstractFactory.ConcreteFactory1 to DesignPatterns.Creational.AbstractFactory.ProductB1--><g id="link_DesignPatterns.Creational.AbstractFactory.ConcreteFactory1_DesignPatterns.Creational.AbstractFactory.ProductB1"><path codeLine="52" d="M59.32,289.31 C49.7,300.59 45.95,313.34 54,327 C65.52,346.57 85.84,360.31 105.9,369.72 " fill="none" id="DesignPatterns.Creational.AbstractFactory.ConcreteFactory1-backto-DesignPatterns.Creational.AbstractFactory.ProductB1" style="stroke:#181818;stroke-width:1.0;"/><polygon fill="#181818" points="68.64,280.18,61.5529,281.5117,60.0564,288.5658,67.1435,287.2341,68.64,280.18" style="stroke:#181818;stroke-width:1.0;"/><text fill="#000000" font-family="sans-serif" font-size="13" lengthAdjust="spacing" textLength="50" x="55" y="323.0669">Creates</text></g><!--MD5=[c9eaa289bc75b330e0bf006df3fc3cd9]
reverse link DesignPatterns.Creational.AbstractFactory.ConcreteFactory2 to DesignPatterns.Creational.AbstractFactory.ProductA2--><g id="link_DesignPatterns.Creational.AbstractFactory.ConcreteFactory2_DesignPatterns.Creational.AbstractFactory.ProductA2"><path codeLine="54" d="M764.34,291.35 C770.37,302.94 772.4,315.29 766,327 C757.73,342.14 743.92,354.08 729.36,363.23 " fill="none" id="DesignPatterns.Creational.AbstractFactory.ConcreteFactory2-backto-DesignPatterns.Creational.AbstractFactory.ProductA2" style="stroke:#181818;stroke-width:1.0;"/><polygon fill="#181818" points="757.14,280.06,756.9884,287.2695,763.5851,290.1823,763.7366,282.9728,757.14,280.06" style="stroke:#181818;stroke-width:1.0;"/><text fill="#000000" font-family="sans-serif" font-size="13" lengthAdjust="spacing" textLength="50" x="770" y="323.0669">Creates</text></g><!--MD5=[416398d842c05087ec8eb996eb3b479a]
reverse link DesignPatterns.Creational.AbstractFactory.ConcreteFactory2 to DesignPatterns.Creational.AbstractFactory.ProductB2--><g id="link_DesignPatterns.Creational.AbstractFactory.ConcreteFactory2_DesignPatterns.Creational.AbstractFactory.ProductB2"><path codeLine="55" d="M697.35,292.69 C691.62,305.19 684,317.62 674,327 C672.96,327.97 616.42,349.16 570.43,366.29 " fill="none" id="DesignPatterns.Creational.AbstractFactory.ConcreteFactory2-backto-DesignPatterns.Creational.AbstractFactory.ProductB2" style="stroke:#181818;stroke-width:1.0;"/><polygon fill="#181818" points="702.47,280.27,696.4839,284.2908,697.893,291.3629,703.8791,287.3421,702.47,280.27" style="stroke:#181818;stroke-width:1.0;"/><text fill="#000000" font-family="sans-serif" font-size="13" lengthAdjust="spacing" textLength="50" x="688" y="323.0669">Creates</text></g><!--MD5=[fff31be072cad11fed7a86efe420f8da]
@startuml
namespace DesignPatterns.Creational.AbstractFactory {

  abstract class AbstractFactory {
    +createProductA(): ProductA
    +createProductB(): ProductB
  }

  interface ProductA {
    +__construct()
  }

  interface ProductB {
    +__construct()
  }

  class ConcreteFactory1 {
    +createProductA(): ProductA
    +createProductB(): ProductB
  }

  class ConcreteFactory2 {
    +createProductA(): ProductA
    +createProductB(): ProductB
  }

  class ProductA1 {
    +__construct()
  }

  class ProductA2 {
    +__construct()
  }

  class ProductB1 {
    +__construct()
  }

  class ProductB2 {
    +__construct()
  }

  AbstractFactory <|- - ConcreteFactory1 : Inheritance
  AbstractFactory <|- - ConcreteFactory2 : Inheritance

  ProductA <|.. ProductA1 : Implements
  ProductA <|.. ProductA2 : Implements

  ProductB <|.. ProductB1 : Implements
  ProductB <|.. ProductB2 : Implements

  ConcreteFactory1 *- - ProductA1 : Creates
  ConcreteFactory1 *- - ProductB1 : Creates

  ConcreteFactory2 *- - ProductA2 : Creates
  ConcreteFactory2 *- - ProductB2 : Creates

}
@enduml

PlantUML version 1.2022.7(Mon Aug 22 17:01:30 UTC 2022)
(GPL source distribution)
Java Runtime: OpenJDK Runtime Environment
JVM: OpenJDK 64-Bit Server VM
Default Encoding: UTF-8
Language: en
Country: null
--></g></svg>