<?xml version="1.0" encoding="UTF-8" standalone="no"?><svg xmlns="http://www.w3.org/2000/svg" xmlns:xlink="http://www.w3.org/1999/xlink" contentStyleType="text/css" height="340px" preserveAspectRatio="none" style="width:708px;height:340px;background:#FFFFFF;" version="1.1" viewBox="0 0 708 340" width="708px" zoomAndPan="magnify"><defs/><g><!--MD5=[1c4afe1a6178790916e11152a258c185]
cluster DesignPatterns.Structural.Decorator--><g id="cluster_DesignPatterns.Structural.Decorator"><path d="M8.5,41.23 L297.5,41.23 A3.75,3.75 0 0 1 300,43.73 L307,63.5269 L698.5,63.5269 A2.5,2.5 0 0 1 701,66.0269 L701,330.73 A2.5,2.5 0 0 1 698.5,333.23 L8.5,333.23 A2.5,2.5 0 0 1 6,330.73 L6,43.73 A2.5,2.5 0 0 1 8.5,41.23 " fill="none" style="stroke:#000000;stroke-width:1.5;"/><line style="stroke:#000000;stroke-width:1.5;" x1="6" x2="307" y1="63.5269" y2="63.5269"/><text fill="#000000" font-family="sans-serif" font-size="14" font-weight="bold" lengthAdjust="spacing" textLength="288" x="10" y="56.2251">DesignPatterns.Structural.Decorator</text></g><!--MD5=[6e266058321ba72758c2d2c66ca6cb06]
class DesignPatterns.Structural.Decorator.Component--><g id="elem_DesignPatterns.Structural.Decorator.Component"><rect codeLine="3" fill="#F1F1F1" height="64.2969" id="DesignPatterns.Structural.Decorator.Component" rx="2.5" ry="2.5" style="stroke:#181818;stroke-width:0.5;" width="139" x="545.5" y="103.73"/><ellipse cx="571.75" cy="119.73" fill="#B4A7E5" rx="11" ry="11" style="stroke:#181818;stroke-width:1.0;"/><path d="M567.6719,115.4956 L567.6719,113.3394 L575.0625,113.3394 L575.0625,115.4956 L572.5938,115.4956 L572.5938,123.5738 L575.0625,123.5738 L575.0625,125.73 L567.6719,125.73 L567.6719,123.5738 L570.1406,123.5738 L570.1406,115.4956 L567.6719,115.4956 Z " fill="#000000"/><text fill="#000000" font-family="sans-serif" font-size="14" font-style="italic" lengthAdjust="spacing" textLength="82" x="588.25" y="124.5767">Component</text><line style="stroke:#181818;stroke-width:0.5;" x1="546.5" x2="683.5" y1="135.73" y2="135.73"/><line style="stroke:#181818;stroke-width:0.5;" x1="546.5" x2="683.5" y1="143.73" y2="143.73"/><ellipse cx="556.5" cy="157.3784" fill="#84BE84" rx="3" ry="3" style="stroke:#038048;stroke-width:1.0;"/><text fill="#000000" font-family="sans-serif" font-size="14" lengthAdjust="spacing" textLength="113" x="565.5" y="160.7251">operation(): void</text></g><!--MD5=[817324d40549e90ee83526bc343f667e]
class DesignPatterns.Structural.Decorator.ConcreteComponent--><g id="elem_DesignPatterns.Structural.Decorator.ConcreteComponent"><rect codeLine="7" fill="#F1F1F1" height="64.2969" id="DesignPatterns.Structural.Decorator.ConcreteComponent" rx="2.5" ry="2.5" style="stroke:#181818;stroke-width:0.5;" width="178" x="255" y="103.73"/><ellipse cx="270" cy="119.73" fill="#ADD1B2" rx="11" ry="11" style="stroke:#181818;stroke-width:1.0;"/><path d="M272.9688,125.3706 Q272.3906,125.6675 271.75,125.8081 Q271.1094,125.9644 270.4063,125.9644 Q267.9063,125.9644 266.5781,124.3238 Q265.2656,122.6675 265.2656,119.5425 Q265.2656,116.4175 266.5781,114.7613 Q267.9063,113.105 270.4063,113.105 Q271.1094,113.105 271.75,113.2613 Q272.4063,113.4175 272.9688,113.7144 L272.9688,116.4331 Q272.3438,115.855 271.75,115.5894 Q271.1563,115.3081 270.5313,115.3081 Q269.1875,115.3081 268.5,116.3863 Q267.8125,117.4488 267.8125,119.5425 Q267.8125,121.6363 268.5,122.7144 Q269.1875,123.7769 270.5313,123.7769 Q271.1563,123.7769 271.75,123.5113 Q272.3438,123.23 272.9688,122.6519 L272.9688,125.3706 Z " fill="#000000"/><text fill="#000000" font-family="sans-serif" font-size="14" lengthAdjust="spacing" textLength="146" x="284" y="124.5767">ConcreteComponent</text><line style="stroke:#181818;stroke-width:0.5;" x1="256" x2="432" y1="135.73" y2="135.73"/><line style="stroke:#181818;stroke-width:0.5;" x1="256" x2="432" y1="143.73" y2="143.73"/><ellipse cx="266" cy="157.3784" fill="#84BE84" rx="3" ry="3" style="stroke:#038048;stroke-width:1.0;"/><text fill="#000000" font-family="sans-serif" font-size="14" lengthAdjust="spacing" textLength="113" x="275" y="160.7251">operation(): void</text></g><!--MD5=[2623dde89ecf7be5837cbceac2fb3064]
class DesignPatterns.Structural.Decorator.Decorator--><g id="elem_DesignPatterns.Structural.Decorator.Decorator"><rect codeLine="11" fill="#F1F1F1" height="80.5938" id="DesignPatterns.Structural.Decorator.Decorator" rx="2.5" ry="2.5" style="stroke:#181818;stroke-width:0.5;" width="197" x="22.5" y="95.23"/><ellipse cx="82.25" cy="111.23" fill="#ADD1B2" rx="11" ry="11" style="stroke:#181818;stroke-width:1.0;"/><path d="M85.2188,116.8706 Q84.6406,117.1675 84,117.3081 Q83.3594,117.4644 82.6563,117.4644 Q80.1563,117.4644 78.8281,115.8238 Q77.5156,114.1675 77.5156,111.0425 Q77.5156,107.9175 78.8281,106.2613 Q80.1563,104.605 82.6563,104.605 Q83.3594,104.605 84,104.7613 Q84.6563,104.9175 85.2188,105.2144 L85.2188,107.9331 Q84.5938,107.355 84,107.0894 Q83.4063,106.8081 82.7813,106.8081 Q81.4375,106.8081 80.75,107.8863 Q80.0625,108.9488 80.0625,111.0425 Q80.0625,113.1363 80.75,114.2144 Q81.4375,115.2769 82.7813,115.2769 Q83.4063,115.2769 84,115.0113 Q84.5938,114.73 85.2188,114.1519 L85.2188,116.8706 Z " fill="#000000"/><text fill="#000000" font-family="sans-serif" font-size="14" lengthAdjust="spacing" textLength="69" x="102.75" y="116.0767">Decorator</text><line style="stroke:#181818;stroke-width:0.5;" x1="23.5" x2="218.5" y1="127.23" y2="127.23"/><rect fill="none" height="6" style="stroke:#C82930;stroke-width:1.0;" width="6" x="30.5" y="137.8784"/><text fill="#000000" font-family="sans-serif" font-size="14" lengthAdjust="spacing" textLength="171" x="42.5" y="144.2251">component: Component</text><line style="stroke:#181818;stroke-width:0.5;" x1="23.5" x2="218.5" y1="151.5269" y2="151.5269"/><ellipse cx="33.5" cy="165.1753" fill="#84BE84" rx="3" ry="3" style="stroke:#038048;stroke-width:1.0;"/><text fill="#000000" font-family="sans-serif" font-size="14" lengthAdjust="spacing" textLength="113" x="42.5" y="168.522">operation(): void</text></g><!--MD5=[c1d44e218ba8d8a529fe8dcfc719ae14]
class DesignPatterns.Structural.Decorator.ConcreteDecoratorA--><g id="elem_DesignPatterns.Structural.Decorator.ConcreteDecoratorA"><rect codeLine="16" fill="#F1F1F1" height="64.2969" id="DesignPatterns.Structural.Decorator.ConcreteDecoratorA" rx="2.5" ry="2.5" style="stroke:#181818;stroke-width:0.5;" width="174" x="28" y="253.23"/><ellipse cx="43" cy="269.23" fill="#ADD1B2" rx="11" ry="11" style="stroke:#181818;stroke-width:1.0;"/><path d="M45.9688,274.8706 Q45.3906,275.1675 44.75,275.3081 Q44.1094,275.4644 43.4063,275.4644 Q40.9063,275.4644 39.5781,273.8238 Q38.2656,272.1675 38.2656,269.0425 Q38.2656,265.9175 39.5781,264.2613 Q40.9063,262.605 43.4063,262.605 Q44.1094,262.605 44.75,262.7613 Q45.4063,262.9175 45.9688,263.2144 L45.9688,265.9331 Q45.3438,265.355 44.75,265.0894 Q44.1563,264.8081 43.5313,264.8081 Q42.1875,264.8081 41.5,265.8863 Q40.8125,266.9488 40.8125,269.0425 Q40.8125,271.1363 41.5,272.2144 Q42.1875,273.2769 43.5313,273.2769 Q44.1563,273.2769 44.75,273.0113 Q45.3438,272.73 45.9688,272.1519 L45.9688,274.8706 Z " fill="#000000"/><text fill="#000000" font-family="sans-serif" font-size="14" lengthAdjust="spacing" textLength="142" x="57" y="274.0767">ConcreteDecoratorA</text><line style="stroke:#181818;stroke-width:0.5;" x1="29" x2="201" y1="285.23" y2="285.23"/><line style="stroke:#181818;stroke-width:0.5;" x1="29" x2="201" y1="293.23" y2="293.23"/><ellipse cx="39" cy="306.8784" fill="#84BE84" rx="3" ry="3" style="stroke:#038048;stroke-width:1.0;"/><text fill="#000000" font-family="sans-serif" font-size="14" lengthAdjust="spacing" textLength="113" x="48" y="310.2251">operation(): void</text></g><!--MD5=[5264c65d180b107e9943e3f318d6eaa2]
class DesignPatterns.Structural.Decorator.ConcreteDecoratorB--><g id="elem_DesignPatterns.Structural.Decorator.ConcreteDecoratorB"><rect codeLine="20" fill="#F1F1F1" height="64.2969" id="DesignPatterns.Structural.Decorator.ConcreteDecoratorB" rx="2.5" ry="2.5" style="stroke:#181818;stroke-width:0.5;" width="175" x="237.5" y="253.23"/><ellipse cx="252.5" cy="269.23" fill="#ADD1B2" rx="11" ry="11" style="stroke:#181818;stroke-width:1.0;"/><path d="M255.4688,274.8706 Q254.8906,275.1675 254.25,275.3081 Q253.6094,275.4644 252.9063,275.4644 Q250.4063,275.4644 249.0781,273.8238 Q247.7656,272.1675 247.7656,269.0425 Q247.7656,265.9175 249.0781,264.2613 Q250.4063,262.605 252.9063,262.605 Q253.6094,262.605 254.25,262.7613 Q254.9063,262.9175 255.4688,263.2144 L255.4688,265.9331 Q254.8438,265.355 254.25,265.0894 Q253.6563,264.8081 253.0313,264.8081 Q251.6875,264.8081 251,265.8863 Q250.3125,266.9488 250.3125,269.0425 Q250.3125,271.1363 251,272.2144 Q251.6875,273.2769 253.0313,273.2769 Q253.6563,273.2769 254.25,273.0113 Q254.8438,272.73 255.4688,272.1519 L255.4688,274.8706 Z " fill="#000000"/><text fill="#000000" font-family="sans-serif" font-size="14" lengthAdjust="spacing" textLength="143" x="266.5" y="274.0767">ConcreteDecoratorB</text><line style="stroke:#181818;stroke-width:0.5;" x1="238.5" x2="411.5" y1="285.23" y2="285.23"/><line style="stroke:#181818;stroke-width:0.5;" x1="238.5" x2="411.5" y1="293.23" y2="293.23"/><ellipse cx="248.5" cy="306.8784" fill="#84BE84" rx="3" ry="3" style="stroke:#038048;stroke-width:1.0;"/><text fill="#000000" font-family="sans-serif" font-size="14" lengthAdjust="spacing" textLength="113" x="257.5" y="310.2251">operation(): void</text></g><!--MD5=[66a9bb8edf587810cd0499b55c88b893]
link DesignPatterns.Structural.Decorator.ConcreteComponent to DesignPatterns.Structural.Decorator.Component--><g id="link_DesignPatterns.Structural.Decorator.ConcreteComponent_DesignPatterns.Structural.Decorator.Component"><path codeLine="26" d="M433.11,135.73 C467.67,135.73 506.81,135.73 539.9,135.73 " fill="none" id="DesignPatterns.Structural.Decorator.ConcreteComponent-to-DesignPatterns.Structural.Decorator.Component" style="stroke:#181818;stroke-width:1.0;"/><polygon fill="#181818" points="545.16,135.73,536.16,131.73,540.16,135.73,536.16,139.73,545.16,135.73" style="stroke:#181818;stroke-width:1.0;"/><text fill="#000000" font-family="sans-serif" font-size="13" lengthAdjust="spacing" textLength="76" x="451.25" y="128.7969">implements</text></g><!--MD5=[4d9cf8027ad84876e2702724d214fa27]
link DesignPatterns.Structural.Decorator.Decorator to DesignPatterns.Structural.Decorator.Component--><g id="link_DesignPatterns.Structural.Decorator.Decorator_DesignPatterns.Structural.Decorator.Component"><path codeLine="27" d="M156.13,95.12 C177.38,73.75 206.43,49.66 238,38.23 C327.01,6 359.72,13.14 451,38.23 C495.17,50.37 539.48,77.84 570.88,100.55 " fill="none" id="DesignPatterns.Structural.Decorator.Decorator-to-DesignPatterns.Structural.Decorator.Component" style="stroke:#181818;stroke-width:1.0;"/><polygon fill="#181818" points="575.03,103.57,570.1076,95.0394,570.9876,100.6274,565.3996,101.5074,575.03,103.57" style="stroke:#181818;stroke-width:1.0;"/><text fill="#000000" font-family="sans-serif" font-size="13" lengthAdjust="spacing" textLength="76" x="344" y="21.2969">implements</text></g><!--MD5=[6491f19bc0616fb34f30dcc1dd466125]
reverse link DesignPatterns.Structural.Decorator.Decorator to DesignPatterns.Structural.Decorator.ConcreteDecoratorA--><g id="link_DesignPatterns.Structural.Decorator.Decorator_DesignPatterns.Structural.Decorator.ConcreteDecoratorA"><path codeLine="28" d="M119.18,181.42 C118.24,204.54 117.12,232.21 116.27,253.01 " fill="none" id="DesignPatterns.Structural.Decorator.Decorator-backto-DesignPatterns.Structural.Decorator.ConcreteDecoratorA" style="stroke:#181818;stroke-width:1.0;"/><polygon fill="#181818" points="119.39,176.26,115.0335,185.0929,119.1902,181.256,123.0271,185.4127,119.39,176.26" style="stroke:#181818;stroke-width:1.0;"/><text fill="#000000" font-family="sans-serif" font-size="13" lengthAdjust="spacing" textLength="51" x="119" y="219.2969">extends</text></g><!--MD5=[43403008428b8b433053ca73611d1c33]
reverse link DesignPatterns.Structural.Decorator.Decorator to DesignPatterns.Structural.Decorator.ConcreteDecoratorB--><g id="link_DesignPatterns.Structural.Decorator.Decorator_DesignPatterns.Structural.Decorator.ConcreteDecoratorB"><path codeLine="29" d="M180,179.39 C212.53,202.91 252.2,231.59 281.82,253.01 " fill="none" id="DesignPatterns.Structural.Decorator.Decorator-backto-DesignPatterns.Structural.Decorator.ConcreteDecoratorB" style="stroke:#181818;stroke-width:1.0;"/><polygon fill="#181818" points="175.67,176.26,180.6067,184.7823,179.7174,179.1958,185.3039,178.3065,175.67,176.26" style="stroke:#181818;stroke-width:1.0;"/><text fill="#000000" font-family="sans-serif" font-size="13" lengthAdjust="spacing" textLength="51" x="236" y="219.2969">extends</text></g><!--MD5=[06c26ecd9af64dd1b2398603f36d0074]
@startuml
namespace DesignPatterns.Structural.Decorator {

    interface Component {
        +operation(): void
    }

    class ConcreteComponent {
        +operation(): void
    }

    class Decorator {
        -component: Component
        +operation(): void
    }

    class ConcreteDecoratorA {
        +operation(): void
    }

    class ConcreteDecoratorB {
        +operation(): void
    }

}

DesignPatterns.Structural.Decorator.ConcreteComponent -right-> DesignPatterns.Structural.Decorator.Component: implements
DesignPatterns.Structural.Decorator.Decorator -right-> DesignPatterns.Structural.Decorator.Component: implements
DesignPatterns.Structural.Decorator.ConcreteDecoratorA -up-> DesignPatterns.Structural.Decorator.Decorator: extends
DesignPatterns.Structural.Decorator.ConcreteDecoratorB -up-> DesignPatterns.Structural.Decorator.Decorator: extends
@enduml

PlantUML version 1.2022.7(Mon Aug 22 17:01:30 UTC 2022)
(GPL source distribution)
Java Runtime: OpenJDK Runtime Environment
JVM: OpenJDK 64-Bit Server VM
Default Encoding: UTF-8
Language: en
Country: null
--></g></svg>