<?xml version="1.0" encoding="UTF-8" standalone="no"?><svg xmlns="http://www.w3.org/2000/svg" xmlns:xlink="http://www.w3.org/1999/xlink" contentStyleType="text/css" height="302px" preserveAspectRatio="none" style="width:376px;height:302px;background:#FFFFFF;" version="1.1" viewBox="0 0 376 302" width="376px" zoomAndPan="magnify"><defs/><g><!--MD5=[e089b8bdf720c2ae688a8fc770e2ff54]
cluster DesignPatterns.Structural.Facade--><g id="cluster_DesignPatterns.Structural.Facade"><path d="M8.5,6 L274.5,6 A3.75,3.75 0 0 1 277,8.5 L284,28.2969 L366.5,28.2969 A2.5,2.5 0 0 1 369,30.7969 L369,292.5 A2.5,2.5 0 0 1 366.5,295 L8.5,295 A2.5,2.5 0 0 1 6,292.5 L6,8.5 A2.5,2.5 0 0 1 8.5,6 " fill="none" style="stroke:#000000;stroke-width:1.5;"/><line style="stroke:#000000;stroke-width:1.5;" x1="6" x2="284" y1="28.2969" y2="28.2969"/><text fill="#000000" font-family="sans-serif" font-size="14" font-weight="bold" lengthAdjust="spacing" textLength="265" x="10" y="20.9951">DesignPatterns.Structural.Facade</text></g><!--MD5=[31c6b78ce8742582c50ba8a6703f3b5c]
class DesignPatterns.Structural.Facade.Subsystem1--><g id="elem_DesignPatterns.Structural.Facade.Subsystem1"><rect codeLine="3" fill="#F1F1F1" height="64.2969" id="DesignPatterns.Structural.Facade.Subsystem1" rx="2.5" ry="2.5" style="stroke:#181818;stroke-width:0.5;" width="148" x="22" y="215"/><ellipse cx="50.5" cy="231" fill="#ADD1B2" rx="11" ry="11" style="stroke:#181818;stroke-width:1.0;"/><path d="M53.4688,236.6406 Q52.8906,236.9375 52.25,237.0781 Q51.6094,237.2344 50.9063,237.2344 Q48.4063,237.2344 47.0781,235.5938 Q45.7656,233.9375 45.7656,230.8125 Q45.7656,227.6875 47.0781,226.0313 Q48.4063,224.375 50.9063,224.375 Q51.6094,224.375 52.25,224.5313 Q52.9063,224.6875 53.4688,224.9844 L53.4688,227.7031 Q52.8438,227.125 52.25,226.8594 Q51.6563,226.5781 51.0313,226.5781 Q49.6875,226.5781 49,227.6563 Q48.3125,228.7188 48.3125,230.8125 Q48.3125,232.9063 49,233.9844 Q49.6875,235.0469 51.0313,235.0469 Q51.6563,235.0469 52.25,234.7813 Q52.8438,234.5 53.4688,233.9219 L53.4688,236.6406 Z " fill="#000000"/><text fill="#000000" font-family="sans-serif" font-size="14" lengthAdjust="spacing" textLength="86" x="67.5" y="235.8467">Subsystem1</text><line style="stroke:#181818;stroke-width:0.5;" x1="23" x2="169" y1="247" y2="247"/><line style="stroke:#181818;stroke-width:0.5;" x1="23" x2="169" y1="255" y2="255"/><ellipse cx="33" cy="268.6484" fill="#84BE84" rx="3" ry="3" style="stroke:#038048;stroke-width:1.0;"/><text fill="#000000" font-family="sans-serif" font-size="14" lengthAdjust="spacing" textLength="122" x="42" y="271.9951">operation1(): void</text></g><!--MD5=[623c985a681326398226e15491195c5c]
class DesignPatterns.Structural.Facade.Subsystem2--><g id="elem_DesignPatterns.Structural.Facade.Subsystem2"><rect codeLine="7" fill="#F1F1F1" height="64.2969" id="DesignPatterns.Structural.Facade.Subsystem2" rx="2.5" ry="2.5" style="stroke:#181818;stroke-width:0.5;" width="148" x="205" y="215"/><ellipse cx="233.5" cy="231" fill="#ADD1B2" rx="11" ry="11" style="stroke:#181818;stroke-width:1.0;"/><path d="M236.4688,236.6406 Q235.8906,236.9375 235.25,237.0781 Q234.6094,237.2344 233.9063,237.2344 Q231.4063,237.2344 230.0781,235.5938 Q228.7656,233.9375 228.7656,230.8125 Q228.7656,227.6875 230.0781,226.0313 Q231.4063,224.375 233.9063,224.375 Q234.6094,224.375 235.25,224.5313 Q235.9063,224.6875 236.4688,224.9844 L236.4688,227.7031 Q235.8438,227.125 235.25,226.8594 Q234.6563,226.5781 234.0313,226.5781 Q232.6875,226.5781 232,227.6563 Q231.3125,228.7188 231.3125,230.8125 Q231.3125,232.9063 232,233.9844 Q232.6875,235.0469 234.0313,235.0469 Q234.6563,235.0469 235.25,234.7813 Q235.8438,234.5 236.4688,233.9219 L236.4688,236.6406 Z " fill="#000000"/><text fill="#000000" font-family="sans-serif" font-size="14" lengthAdjust="spacing" textLength="86" x="250.5" y="235.8467">Subsystem2</text><line style="stroke:#181818;stroke-width:0.5;" x1="206" x2="352" y1="247" y2="247"/><line style="stroke:#181818;stroke-width:0.5;" x1="206" x2="352" y1="255" y2="255"/><ellipse cx="216" cy="268.6484" fill="#84BE84" rx="3" ry="3" style="stroke:#038048;stroke-width:1.0;"/><text fill="#000000" font-family="sans-serif" font-size="14" lengthAdjust="spacing" textLength="122" x="225" y="271.9951">operation2(): void</text></g><!--MD5=[8f81cc430098f939672275718df4fa87]
class DesignPatterns.Structural.Facade.Facade--><g id="elem_DesignPatterns.Structural.Facade.Facade"><rect codeLine="11" fill="#F1F1F1" height="96.8906" id="DesignPatterns.Structural.Facade.Facade" rx="2.5" ry="2.5" style="stroke:#181818;stroke-width:0.5;" width="206" x="67" y="41"/><ellipse cx="140.75" cy="57" fill="#ADD1B2" rx="11" ry="11" style="stroke:#181818;stroke-width:1.0;"/><path d="M143.7188,62.6406 Q143.1406,62.9375 142.5,63.0781 Q141.8594,63.2344 141.1563,63.2344 Q138.6563,63.2344 137.3281,61.5938 Q136.0156,59.9375 136.0156,56.8125 Q136.0156,53.6875 137.3281,52.0313 Q138.6563,50.375 141.1563,50.375 Q141.8594,50.375 142.5,50.5313 Q143.1563,50.6875 143.7188,50.9844 L143.7188,53.7031 Q143.0938,53.125 142.5,52.8594 Q141.9063,52.5781 141.2813,52.5781 Q139.9375,52.5781 139.25,53.6563 Q138.5625,54.7188 138.5625,56.8125 Q138.5625,58.9063 139.25,59.9844 Q139.9375,61.0469 141.2813,61.0469 Q141.9063,61.0469 142.5,60.7813 Q143.0938,60.5 143.7188,59.9219 L143.7188,62.6406 Z " fill="#000000"/><text fill="#000000" font-family="sans-serif" font-size="14" lengthAdjust="spacing" textLength="50" x="161.25" y="61.8467">Facade</text><line style="stroke:#181818;stroke-width:0.5;" x1="68" x2="272" y1="73" y2="73"/><rect fill="none" height="6" style="stroke:#C82930;stroke-width:1.0;" width="6" x="75" y="83.6484"/><text fill="#000000" font-family="sans-serif" font-size="14" lengthAdjust="spacing" textLength="180" x="87" y="89.9951">subsystem1: Subsystem1</text><rect fill="none" height="6" style="stroke:#C82930;stroke-width:1.0;" width="6" x="75" y="99.9453"/><text fill="#000000" font-family="sans-serif" font-size="14" lengthAdjust="spacing" textLength="180" x="87" y="106.292">subsystem2: Subsystem2</text><line style="stroke:#181818;stroke-width:0.5;" x1="68" x2="272" y1="113.5938" y2="113.5938"/><ellipse cx="78" cy="127.2422" fill="#84BE84" rx="3" ry="3" style="stroke:#038048;stroke-width:1.0;"/><text fill="#000000" font-family="sans-serif" font-size="14" lengthAdjust="spacing" textLength="113" x="87" y="130.5889">operation(): void</text></g><!--MD5=[b52ed8c9eb04c9fbc15957134bbc8992]
link DesignPatterns.Structural.Facade.Facade to DesignPatterns.Structural.Facade.Subsystem1--><g id="link_DesignPatterns.Structural.Facade.Facade_DesignPatterns.Structural.Facade.Subsystem1"><path codeLine="19" d="M142.2454,148.8365 C142.2454,148.8365 124.25,186.65 116.45,203.02 " fill="none" id="DesignPatterns.Structural.Facade.Facade-DesignPatterns.Structural.Facade.Subsystem1" style="stroke:#181818;stroke-width:1.0;"/><polygon fill="#181818" points="110.76,214.98,118.2381,208.5708,112.9077,210.4648,111.0138,205.1344,110.76,214.98" style="stroke:#181818;stroke-width:1.0;"/><line style="stroke:#181818;stroke-width:1.0;" x1="112.9077" x2="116.35" y1="210.4648" y2="203.235"/><polygon fill="none" points="147.4,138,141.2105,141.7001,142.2454,148.8365,148.4349,145.1365,147.4,138" style="stroke:#181818;stroke-width:1.0;"/><text fill="#000000" font-family="sans-serif" font-size="13" lengthAdjust="spacing" textLength="78" x="134" y="181.0669">subsystem1</text></g><!--MD5=[d6abe0e6cae84c6d2930b9a93ba1d6b1]
link DesignPatterns.Structural.Facade.Facade to DesignPatterns.Structural.Facade.Subsystem2--><g id="link_DesignPatterns.Structural.Facade.Facade_DesignPatterns.Structural.Facade.Subsystem2"><path codeLine="20" d="M210.1948,147.8215 C210.1948,147.8215 237.8,187.23 249.74,204.26 " fill="none" id="DesignPatterns.Structural.Facade.Facade-DesignPatterns.Structural.Facade.Subsystem2" style="stroke:#181818;stroke-width:1.0;"/><polygon fill="#181818" points="257.25,214.98,255.3614,205.3139,254.3808,210.8851,248.8096,209.9046,257.25,214.98" style="stroke:#181818;stroke-width:1.0;"/><line style="stroke:#181818;stroke-width:1.0;" x1="254.3808" x2="249.795" y1="210.8851" y2="204.33"/><polygon fill="none" points="203.3,138,203.4736,145.209,210.1948,147.8215,210.0212,140.6125,203.3,138" style="stroke:#181818;stroke-width:1.0;"/><text fill="#000000" font-family="sans-serif" font-size="13" lengthAdjust="spacing" textLength="78" x="235" y="181.0669">subsystem2</text></g><!--MD5=[eb182d8cab1b10f71de1d9b8757925e8]
@startuml
namespace DesignPatterns.Structural.Facade {

    class Subsystem1 {
        +operation1(): void
    }

    class Subsystem2 {
        +operation2(): void
    }

    class Facade {
        -subsystem1: Subsystem1
        -subsystem2: Subsystem2
        +operation(): void
    }

}

DesignPatterns.Structural.Facade.Facade o-down-> DesignPatterns.Structural.Facade.Subsystem1: subsystem1
DesignPatterns.Structural.Facade.Facade o-down-> DesignPatterns.Structural.Facade.Subsystem2: subsystem2
@enduml

PlantUML version 1.2022.7(Mon Aug 22 17:01:30 UTC 2022)
(GPL source distribution)
Java Runtime: OpenJDK Runtime Environment
JVM: OpenJDK 64-Bit Server VM
Default Encoding: UTF-8
Language: en
Country: null
--></g></svg>